<svg width="23" height="23" viewBox="0 0 23 23" fill="none" xmlns="http://www.w3.org/2000/svg">
<path d="M12.5858 7.17942C11.8048 6.39837 10.5384 6.39837 9.75737 7.17942L3.88262 13.0542C3.10157 13.8353 1.83523 13.8353 1.05418 13.0542L0.585776 12.5858C-0.195263 11.8047 -0.195258 10.5384 0.585786 9.75737L9.75737 0.585787C10.5384 -0.195262 11.8047 -0.195262 12.5858 0.585786L21.7574 9.75736C22.5384 10.5384 22.5384 11.8047 21.7574 12.5858L21.289 13.0542C20.5079 13.8352 19.2416 13.8352 18.4606 13.0542L12.5858 7.17942Z" fill="white"/>
<path d="M21.7574 18.4274C22.5384 19.2085 22.5384 20.4748 21.7574 21.2558L21.289 21.7242C20.5079 22.5053 19.2416 22.5053 18.4606 21.7242L12.5858 15.8495C11.8047 15.0684 10.5384 15.0684 9.75737 15.8495L3.88261 21.7242C3.10156 22.5053 1.83523 22.5053 1.05418 21.7242L0.585796 21.2558C-0.195253 20.4748 -0.195252 19.2085 0.585797 18.4274L9.75737 9.25583C10.5384 8.47478 11.8047 8.47478 12.5858 9.25583L21.7574 18.4274Z" fill="white"/>
</svg>
