<svg width="151" height="151" viewBox="0 0 151 151" fill="none" xmlns="http://www.w3.org/2000/svg">
<path d="M65.603 102.544C70.8544 107.796 79.3685 107.796 84.6198 102.544L124.118 63.0456C129.37 57.7942 137.884 57.7942 143.135 63.0456L146.284 66.1949C151.536 71.4463 151.536 79.9603 146.284 85.2116L84.6198 146.876C79.3685 152.128 70.8544 152.128 65.603 146.876L3.9385 85.2117C-1.31284 79.9603 -1.31284 71.4463 3.9385 66.1949L7.08766 63.0457C12.339 57.7944 20.8531 57.7944 26.1044 63.0458L65.603 102.544Z" fill="black"/>
<path d="M3.93849 26.9191C-1.31284 21.6678 -1.31284 13.1537 3.93849 7.90237L7.08766 4.7532C12.339 -0.49813 20.8531 -0.498118 26.1044 4.75322L65.603 44.2518C70.8544 49.5031 79.3685 49.5031 84.6198 44.2518L124.118 4.75321C129.37 -0.498127 137.884 -0.498128 143.135 4.75321L146.284 7.90237C151.536 13.1537 151.536 21.6678 146.284 26.9191L84.6198 88.5837C79.3685 93.835 70.8544 93.835 65.603 88.5837L3.93849 26.9191Z" fill="black"/>
</svg>
