<svg width="16" height="16" viewBox="0 0 16 16" fill="none" xmlns="http://www.w3.org/2000/svg">
<g id="Frame" clip-path="url(#clip0_433_751)">
<g id="Group">
<path id="Vector" d="M11.9997 5.02937C11.9997 4.00803 11.5782 3.02851 10.8281 2.30631C10.078 1.5841 9.06065 1.17838 7.99983 1.17838C6.93901 1.17838 5.92164 1.5841 5.17152 2.30631C4.42141 3.02851 4 4.00803 4 5.02937C4 6.96257 5.48394 8.54765 7.41185 8.82338C7.40945 8.8434 7.39985 8.86035 7.39985 8.88037V15.042C7.39985 15.1952 7.46307 15.3421 7.57558 15.4504C7.6881 15.5588 7.84071 15.6196 7.99983 15.6196C8.15895 15.6196 8.31156 15.5588 8.42407 15.4504C8.53659 15.3421 8.5998 15.1952 8.5998 15.042V8.88037C8.5998 8.86035 8.5902 8.84263 8.5878 8.82338C10.5157 8.54765 11.9997 6.96257 11.9997 5.02937Z" fill="#5F6C7B"/>
</g>
<ellipse id="Ellipse 5" cx="8.00073" cy="4.64411" rx="1.19995" ry="1.1553" fill="white"/>
</g>
<defs>
<clipPath id="clip0_433_751">
<rect width="16" height="15.4047" fill="white" transform="translate(0 0.455811)"/>
</clipPath>
</defs>
</svg>
