<svg width="9" height="18" viewBox="0 0 9 18" fill="none" xmlns="http://www.w3.org/2000/svg">
<path d="M9 4.57627C9 2.05292 6.9813 0 4.5 0C2.0187 0 0 2.05292 0 4.57627C0 6.99681 1.8585 8.97895 4.2 9.13698V17.6949C4.2 17.7758 4.23161 17.8534 4.28787 17.9106C4.34413 17.9679 4.42044 18 4.5 18C4.57957 18 4.65587 17.9679 4.71213 17.9106C4.76839 17.8534 4.8 17.7758 4.8 17.6949V9.13698C7.1415 8.97895 9 6.99681 9 4.57627ZM3 4.57627C2.3382 4.57627 1.8 4.02895 1.8 3.35593C1.8 2.68292 2.3382 2.13559 3 2.13559C3.6618 2.13559 4.2 2.68292 4.2 3.35593C4.2 4.02895 3.6618 4.57627 3 4.57627Z" fill="#F1F1F1"/>
</svg>
