<svg xmlns="http://www.w3.org/2000/svg" width="63.004" height="52.842" viewBox="0 0 63.004 52.842"><defs><style>.a{fill:#fff;}</style></defs><g transform="translate(-1 -6)"><path class="a" d="M58.923,20.227a5.091,5.091,0,0,0-4.978,4.065H44.188l1.524-2.032a10.162,10.162,0,1,0-16.259,0l1.524,2.032H11.059A5.081,5.081,0,0,0,1,25.308V53.761a5.087,5.087,0,0,0,5.081,5.081H58.923A5.087,5.087,0,0,0,64,53.761V25.308A5.087,5.087,0,0,0,58.923,20.227ZM53.842,48.68H49.777V44.615h4.065Zm0-6.1H49.777a2.034,2.034,0,0,0-2.032,2.032V48.68a2.034,2.034,0,0,0,2.032,2.032h4.065v2.032H49.777a2.034,2.034,0,0,0-2.032,2.032V56.81H45.713V45.632a3.052,3.052,0,0,0-3.049-3.049H33.518a3.052,3.052,0,0,0-3.049,3.049V56.81H28.437V43.6a1.015,1.015,0,0,0-1.016-1.016H20.308A1.015,1.015,0,0,0,19.292,43.6v.8A23.1,23.1,0,0,1,15.676,56.81H13.121A23.079,23.079,0,0,0,17.259,43.6a1.015,1.015,0,0,0-1.016-1.016H11.162V40.551h3.049A3.052,3.052,0,0,0,17.259,37.5V34.618a2.03,2.03,0,0,1,1.39-1.928l4.975-1.658a4.062,4.062,0,0,0,2.78-3.856v-.852h2.032v1.7a5.074,5.074,0,0,1-3.474,4.82l-4.281,1.427a2.031,2.031,0,0,0-1.39,1.929v1.3a3.052,3.052,0,0,0,3.049,3.049H42.664A3.052,3.052,0,0,0,45.713,37.5V26.324h2.032V37.5a3.052,3.052,0,0,0,3.049,3.049h3.049ZM43.68,56.81H32.5V45.632a1.017,1.017,0,0,1,1.016-1.016h9.146a1.017,1.017,0,0,1,1.016,1.016Zm-17.275,0H18.06a25.11,25.11,0,0,0,3.263-12.194H26.4ZM11.162,38.518V26.324H24.373v.852a2.03,2.03,0,0,1-1.39,1.928l-4.975,1.658a4.062,4.062,0,0,0-2.78,3.856V37.5a1.017,1.017,0,0,1-1.016,1.016Zm42.68,0H50.794A1.017,1.017,0,0,1,49.777,37.5V26.324h4.065ZM37.583,8.032a8.13,8.13,0,0,1,6.5,13.008l-6.5,8.67-6.5-8.67a8.13,8.13,0,0,1,6.5-13.008ZM40.632,31.4c0,1.1-1.4,2.032-3.049,2.032s-3.049-.931-3.049-2.032a1.733,1.733,0,0,1,.781-1.329l1.454,1.939a1.016,1.016,0,0,0,1.626,0l1.454-1.939a1.733,1.733,0,0,1,.781,1.329Zm-6.539-2.961A3.73,3.73,0,0,0,32.5,31.4c0,2.242,2.279,4.065,5.081,4.065s5.081-1.823,5.081-4.065a3.73,3.73,0,0,0-1.59-2.961l1.59-2.12H43.68V37.5a1.017,1.017,0,0,1-1.016,1.016H22.34A1.017,1.017,0,0,1,21.324,37.5V36.2l4.282-1.428a7.1,7.1,0,0,0,4.864-6.748v-1.7H32.5ZM3.032,25.308a3.049,3.049,0,0,1,6.1,0V49.7a5.073,5.073,0,0,0-6.1,0Zm0,28.454a3.049,3.049,0,1,1,6.1,0,1.016,1.016,0,1,0,2.032,0V44.615H15.2a21.066,21.066,0,0,1-3.92,11.3l-.643.9H6.081a3.052,3.052,0,0,1-3.049-3.049ZM58.923,56.81H49.777V54.777h5.081a1.015,1.015,0,0,0,1.016-1.016,3.049,3.049,0,1,1,3.049,3.049ZM61.972,49.7a5.073,5.073,0,0,0-6.1,0V25.308a3.049,3.049,0,1,1,6.1,0Z" transform="translate(0 0)"/><path class="a" d="M37.081,20.162A5.081,5.081,0,1,0,32,15.081,5.087,5.087,0,0,0,37.081,20.162Zm0-8.13a3.049,3.049,0,1,1-3.049,3.049A3.052,3.052,0,0,1,37.081,12.032Z" transform="translate(0.502 0.065)"/></g></svg>