<svg width="3015" height="38" viewBox="0 0 3015 38" fill="none" xmlns="http://www.w3.org/2000/svg">
<path d="M6 38L-2.3055e-07 38L1.43051e-06 -2.62273e-07L6 0L6 38Z" fill="#50C1DB"/>
<path d="M193 38L188 38L188 -2.18561e-07L193 0L193 38Z" fill="#50C1DB"/>
<path d="M381 38L376 38L376 -2.18561e-07L381 0L381 38Z" fill="#50C1DB"/>
<path d="M569 38L564 38L564 -2.18561e-07L569 0L569 38Z" fill="#50C1DB"/>
<path d="M757 38L753 38L753 -1.74848e-07L757 0L757 38Z" fill="#50C1DB"/>
<path d="M945 38L941 38L941 -1.74848e-07L945 0L945 38Z" fill="#50C1DB"/>
<path d="M1134 38L1129 38L1129 -2.18561e-07L1134 0L1134 38Z" fill="#50C1DB"/>
<path d="M1322 38L1317 38L1317 -2.18561e-07L1322 0L1322 38Z" fill="#50C1DB"/>
<path d="M1510 38L1504 38L1504 -2.62273e-07L1510 0L1510 38Z" fill="#50C1DB"/>
<path d="M1698 38L1692 38L1692 -2.62273e-07L1698 0L1698 38Z" fill="#50C1DB"/>
<path d="M1886 38L1882 38L1882 -1.74848e-07L1886 0L1886 38Z" fill="#50C1DB"/>
<path d="M2074 38L2070 38L2070 -1.74848e-07L2074 0L2074 38Z" fill="#50C1DB"/>
<path d="M2263 38L2257 38L2257 -2.62273e-07L2263 0L2263 38Z" fill="#50C1DB"/>
<path d="M2451 38L2445 38L2445 -2.62273e-07L2451 0L2451 38Z" fill="#50C1DB"/>
<path d="M2639 38L2633 38L2633 -2.62273e-07L2639 0L2639 38Z" fill="#50C1DB"/>
<path d="M2827 38L2821 38L2821 -2.62273e-07L2827 0L2827 38Z" fill="#50C1DB"/>
<path d="M43 25H37V0L43 0V25Z" fill="#50C1DB"/>
<path d="M231 25H225V0L231 0V25Z" fill="#50C1DB"/>
<path d="M419 25H413V0L419 0V25Z" fill="#50C1DB"/>
<path d="M607 25H601V0L607 0V25Z" fill="#50C1DB"/>
<path d="M795 25H790V0L795 0V25Z" fill="#50C1DB"/>
<path d="M984 25H978V0L984 0V25Z" fill="#50C1DB"/>
<path d="M1172 25H1166V0L1172 0V25Z" fill="#50C1DB"/>
<path d="M1360 25H1354V0L1360 0V25Z" fill="#50C1DB"/>
<path d="M1548 25H1542V0L1548 0V25Z" fill="#50C1DB"/>
<path d="M1736 25H1730V0L1736 0V25Z" fill="#50C1DB"/>
<path d="M1924 25H1919V0L1924 0V25Z" fill="#50C1DB"/>
<path d="M2112 25H2107V0L2112 0V25Z" fill="#50C1DB"/>
<path d="M2301 25H2295V0L2301 0V25Z" fill="#50C1DB"/>
<path d="M2489 25H2483V0L2489 0V25Z" fill="#50C1DB"/>
<path d="M2677 25H2671V0L2677 0V25Z" fill="#50C1DB"/>
<path d="M2865 25H2859V0L2865 0V25Z" fill="#50C1DB"/>
<path d="M81 25H75V0L81 0V25Z" fill="#50C1DB"/>
<path d="M269 25H263V0L269 0V25Z" fill="#50C1DB"/>
<path d="M457 25H451V0L457 0V25Z" fill="#50C1DB"/>
<path d="M644 25H640V0L644 0V25Z" fill="#50C1DB"/>
<path d="M832 25H828V0L832 0V25Z" fill="#50C1DB"/>
<path d="M1022 25H1016V0L1022 0V25Z" fill="#50C1DB"/>
<path d="M1210 25H1204V0L1210 0V25Z" fill="#50C1DB"/>
<path d="M1397 25H1392V0L1397 0V25Z" fill="#50C1DB"/>
<path d="M1585 25H1580V0L1585 0V25Z" fill="#50C1DB"/>
<path d="M1773 25H1768V0L1773 0V25Z" fill="#50C1DB"/>
<path d="M1961 25H1957V0L1961 0V25Z" fill="#50C1DB"/>
<path d="M2149 25H2145V0L2149 0V25Z" fill="#50C1DB"/>
<path d="M2338 25H2333V0L2338 0V25Z" fill="#50C1DB"/>
<path d="M2526 25H2521V0L2526 0V25Z" fill="#50C1DB"/>
<path d="M2714 25H2708V0L2714 0V25Z" fill="#50C1DB"/>
<path d="M2902 25H2896V0L2902 0V25Z" fill="#50C1DB"/>
<path d="M118 25H113V0L118 0V25Z" fill="#50C1DB"/>
<path d="M306 25H300V0L306 0V25Z" fill="#50C1DB"/>
<path d="M494 25H488V0L494 0V25Z" fill="#50C1DB"/>
<path d="M682 25H678V0L682 0V25Z" fill="#50C1DB"/>
<path d="M870 25H866V0L870 0V25Z" fill="#50C1DB"/>
<path d="M1059 25H1053V0L1059 0V25Z" fill="#50C1DB"/>
<path d="M1247 25H1241V0L1247 0V25Z" fill="#50C1DB"/>
<path d="M1435 25H1429V0L1435 0V25Z" fill="#50C1DB"/>
<path d="M1623 25H1617V0L1623 0V25Z" fill="#50C1DB"/>
<path d="M1811 25H1805V0L1811 0V25Z" fill="#50C1DB"/>
<path d="M1999 25H1994V0L1999 0V25Z" fill="#50C1DB"/>
<path d="M2188 25H2182V0L2188 0V25Z" fill="#50C1DB"/>
<path d="M2376 25H2370V0L2376 0V25Z" fill="#50C1DB"/>
<path d="M2564 25H2558V0L2564 0V25Z" fill="#50C1DB"/>
<path d="M2752 25H2746V0L2752 0V25Z" fill="#50C1DB"/>
<path d="M2940 25H2934V0L2940 0V25Z" fill="#50C1DB"/>
<path d="M156 25H150V0L156 0V25Z" fill="#50C1DB"/>
<path d="M344 25H338V0L344 0V25Z" fill="#50C1DB"/>
<path d="M532 25H526V0L532 0V25Z" fill="#50C1DB"/>
<path d="M720 25H715V0L720 0V25Z" fill="#50C1DB"/>
<path d="M908 25H903V0L908 0V25Z" fill="#50C1DB"/>
<path d="M1097 25H1091V0L1097 0V25Z" fill="#50C1DB"/>
<path d="M1285 25H1279V0L1285 0V25Z" fill="#50C1DB"/>
<path d="M1473 25H1467V0L1473 0V25Z" fill="#50C1DB"/>
<path d="M1661 25H1655V0L1661 0V25Z" fill="#50C1DB"/>
<path d="M1848 25H1844V0L1848 0V25Z" fill="#50C1DB"/>
<path d="M2036 25H2032V0L2036 0V25Z" fill="#50C1DB"/>
<path d="M2226 25H2220V0L2226 0V25Z" fill="#50C1DB"/>
<path d="M2414 25H2408V0L2414 0V25Z" fill="#50C1DB"/>
<path d="M2601 25H2596V0L2601 0V25Z" fill="#50C1DB"/>
<path d="M2789 25H2784V0L2789 0V25Z" fill="#50C1DB"/>
<path d="M2977 25H2972V0L2977 0V25Z" fill="#50C1DB"/>
<path d="M193 38H188V0L193 0V38Z" fill="#50C1DB"/>
<path d="M381 38H376V0L381 0V38Z" fill="#50C1DB"/>
<path d="M569 38H564V0L569 0V38Z" fill="#50C1DB"/>
<path d="M757 38H753V0L757 0V38Z" fill="#50C1DB"/>
<path d="M945 38H941V0L945 0V38Z" fill="#50C1DB"/>
<path d="M1134 38H1129V0L1134 0V38Z" fill="#50C1DB"/>
<path d="M1322 38H1317V0L1322 0V38Z" fill="#50C1DB"/>
<path d="M1510 38H1504V0L1510 0V38Z" fill="#50C1DB"/>
<path d="M1698 38H1692V0L1698 0V38Z" fill="#50C1DB"/>
<path d="M1886 38H1882V0L1886 0V38Z" fill="#50C1DB"/>
<path d="M2074 38H2070V0L2074 0V38Z" fill="#50C1DB"/>
<path d="M2263 38H2257V0L2263 0V38Z" fill="#50C1DB"/>
<path d="M2451 38H2445V0L2451 0V38Z" fill="#50C1DB"/>
<path d="M2639 38H2633V0L2639 0V38Z" fill="#50C1DB"/>
<path d="M2827 38H2821V0L2827 0V38Z" fill="#50C1DB"/>
<path d="M3015 38H3009V0L3015 0V38Z" fill="#50C1DB"/>
</svg>
