<svg width="3022" height="63" viewBox="0 0 3022 63" fill="none" xmlns="http://www.w3.org/2000/svg">
<path d="M7 62C5.59835 62 4.36985 61.6401 3.31449 60.9203C2.27562 60.1851 1.45936 59.1743 0.865724 57.8878C0.288575 56.586 0 55.1004 0 53.4311C0 51.7617 0.288575 50.2991 0.865724 49.0432C1.44287 47.7721 2.25913 46.7842 3.31449 46.0797C4.36985 45.3599 5.59835 45 7 45C8.40165 45 9.62191 45.3599 10.6608 46.0797C11.7161 46.7842 12.5324 47.7721 13.1095 49.0432C13.7032 50.2991 14 51.7617 14 53.4311C14 55.1158 13.7032 56.6014 13.1095 57.8878C12.5324 59.1743 11.7161 60.1851 10.6608 60.9203C9.62191 61.6401 8.40165 62 7 62ZM7 60.3459C8.00589 60.3459 8.86337 60.0703 9.57244 59.5189C10.2815 58.9523 10.8257 58.1559 11.2049 57.1297C11.5842 56.0883 11.7739 54.8477 11.7739 53.4081C11.7739 51.9838 11.5842 50.7662 11.2049 49.7554C10.8422 48.7446 10.3062 47.9788 9.59717 47.4581C8.8881 46.9221 8.02238 46.6541 7 46.6541C5.97762 46.6541 5.1119 46.9221 4.40283 47.4581C3.69376 47.9941 3.14959 48.7676 2.77032 49.7784C2.40754 50.7739 2.22615 51.9838 2.22615 53.4081C2.22615 54.8477 2.41578 56.0883 2.79505 57.1297C3.17432 58.1712 3.71849 58.9676 4.42756 59.5189C5.13663 60.0703 5.99411 60.3459 7 60.3459Z" fill="#50C1DB"/>
<path d="M205.728 62.053C204.357 62.053 203.156 61.6741 202.124 60.9162C201.108 60.1422 200.31 59.078 199.729 57.7235C199.165 56.3529 198.883 54.7887 198.883 53.0311C198.883 51.2735 199.165 49.7335 199.729 48.4113C200.294 47.0729 201.092 46.0329 202.124 45.2911C203.156 44.5332 204.357 44.1543 205.728 44.1543C207.099 44.1543 208.292 44.5332 209.308 45.2911C210.34 46.0329 211.138 47.0729 211.702 48.4113C212.283 49.7335 212.573 51.2735 212.573 53.0311C212.573 54.8049 212.283 56.369 211.702 57.7235C211.138 59.078 210.34 60.1422 209.308 60.9162C208.292 61.6741 207.099 62.053 205.728 62.053ZM205.728 60.3115C206.712 60.3115 207.55 60.0213 208.243 59.4408C208.937 58.8442 209.469 58.0057 209.84 56.9253C210.211 55.8288 210.396 54.5227 210.396 53.0069C210.396 51.5073 210.211 50.2254 209.84 49.1611C209.485 48.0969 208.961 47.2906 208.268 46.7424C207.574 46.178 206.728 45.8958 205.728 45.8958C204.728 45.8958 203.882 46.178 203.188 46.7424C202.495 47.3067 201.963 48.121 201.592 49.1853C201.237 50.2334 201.06 51.5073 201.06 53.0069C201.06 54.5227 201.245 55.8288 201.616 56.9253C201.987 58.0218 202.519 58.8603 203.212 59.4408C203.906 60.0213 204.744 60.3115 205.728 60.3115Z" fill="#50C1DB"/>
<path d="M185.133 61.8112V60.118C186.875 58.6829 188.326 57.4252 189.487 56.3448C190.664 55.2644 191.6 54.305 192.293 53.4665C193.002 52.628 193.502 51.862 193.793 51.1687C194.099 50.4592 194.252 49.7658 194.252 49.0885C194.252 48.0888 193.954 47.3067 193.357 46.7424C192.761 46.178 191.938 45.8958 190.89 45.8958C189.81 45.8958 188.939 46.2022 188.278 46.8149C187.617 47.4277 187.214 48.3065 187.068 49.4514H184.988C185.15 47.8711 185.754 46.5972 186.802 45.6297C187.867 44.6461 189.278 44.1543 191.035 44.1543C192.664 44.1543 193.962 44.5897 194.929 45.4604C195.897 46.3312 196.381 47.5244 196.381 49.0402C196.381 49.8625 196.219 50.6849 195.897 51.5073C195.59 52.3297 195.074 53.1924 194.349 54.0954C193.639 54.9984 192.696 55.9981 191.519 57.0946C190.358 58.175 188.915 59.4005 187.189 60.7711L186.73 60.0697H196.671V61.8112H185.133Z" fill="#50C1DB"/>
<path d="M392.156 62.053C390.785 62.053 389.584 61.6741 388.552 60.9162C387.536 60.1422 386.738 59.078 386.157 57.7235C385.593 56.3529 385.311 54.7887 385.311 53.0311C385.311 51.2735 385.593 49.7335 386.157 48.4113C386.721 47.0729 387.52 46.0329 388.552 45.2911C389.584 44.5332 390.785 44.1543 392.156 44.1543C393.526 44.1543 394.719 44.5332 395.735 45.2911C396.767 46.0329 397.566 47.0729 398.13 48.4113C398.71 49.7335 399.001 51.2735 399.001 53.0311C399.001 54.8049 398.71 56.369 398.13 57.7235C397.566 59.078 396.767 60.1422 395.735 60.9162C394.719 61.6741 393.526 62.053 392.156 62.053ZM392.156 60.3115C393.139 60.3115 393.978 60.0213 394.671 59.4408C395.364 58.8442 395.897 58.0057 396.267 56.9253C396.638 55.8288 396.824 54.5227 396.824 53.0069C396.824 51.5073 396.638 50.2254 396.267 49.1611C395.913 48.0969 395.389 47.2906 394.695 46.7424C394.002 46.178 393.155 45.8958 392.156 45.8958C391.156 45.8958 390.309 46.178 389.616 46.7424C388.923 47.3067 388.39 48.121 388.02 49.1853C387.665 50.2334 387.487 51.5073 387.487 53.0069C387.487 54.5227 387.673 55.8288 388.044 56.9253C388.415 58.0218 388.947 58.8603 389.64 59.4408C390.333 60.0213 391.172 60.3115 392.156 60.3115Z" fill="#50C1DB"/>
<path d="M379.085 61.8105V57.2149L379.133 56.7311V46.7901H379.786L372.433 56.8521L371.78 56.0539H383.39V57.7954H370.426V56.2958L379.182 44.3955H381.165V61.8105H379.085Z" fill="#50C1DB"/>
<path d="M577.972 62.053C576.601 62.053 575.4 61.6741 574.368 60.9162C573.352 60.1422 572.554 59.078 571.974 57.7235C571.409 56.3529 571.127 54.7887 571.127 53.0311C571.127 51.2735 571.409 49.7335 571.974 48.4113C572.538 47.0729 573.336 46.0329 574.368 45.2911C575.4 44.5332 576.601 44.1543 577.972 44.1543C579.343 44.1543 580.536 44.5332 581.552 45.2911C582.584 46.0329 583.382 47.0729 583.946 48.4113C584.527 49.7335 584.817 51.2735 584.817 53.0311C584.817 54.8049 584.527 56.369 583.946 57.7235C583.382 59.078 582.584 60.1422 581.552 60.9162C580.536 61.6741 579.343 62.053 577.972 62.053ZM577.972 60.3115C578.956 60.3115 579.794 60.0213 580.488 59.4408C581.181 58.8442 581.713 58.0057 582.084 56.9253C582.455 55.8288 582.64 54.5227 582.64 53.0069C582.64 51.5073 582.455 50.2254 582.084 49.1611C581.729 48.0969 581.205 47.2906 580.512 46.7424C579.818 46.178 578.972 45.8958 577.972 45.8958C576.972 45.8958 576.126 46.178 575.432 46.7424C574.739 47.3067 574.207 48.121 573.836 49.1853C573.481 50.2334 573.304 51.5073 573.304 53.0069C573.304 54.5227 573.489 55.8288 573.86 56.9253C574.231 58.0218 574.763 58.8603 575.457 59.4408C576.15 60.0213 576.988 60.3115 577.972 60.3115Z" fill="#50C1DB"/>
<path d="M562.634 62.053C560.586 62.053 559.005 61.3113 557.893 59.8278C556.796 58.3282 556.248 56.1674 556.248 53.3455C556.248 51.3944 556.506 49.7335 557.022 48.3629C557.554 46.9923 558.312 45.9522 559.296 45.2427C560.279 44.5171 561.448 44.1543 562.803 44.1543C564.286 44.1543 565.512 44.5816 566.479 45.4362C567.447 46.2909 568.035 47.468 568.245 48.9676H566.117C565.971 47.9679 565.601 47.21 565.004 46.694C564.423 46.1619 563.682 45.8958 562.779 45.8958C561.344 45.8958 560.255 46.5085 559.513 47.734C558.788 48.9595 558.425 50.7978 558.425 53.2488V54.821L557.869 54.6033C558.014 53.8454 558.336 53.1843 558.836 52.6199C559.336 52.0555 559.957 51.6202 560.699 51.3138C561.44 50.9913 562.238 50.83 563.093 50.83C564.19 50.83 565.141 51.0719 565.947 51.5557C566.77 52.0233 567.407 52.6844 567.858 53.539C568.326 54.3775 568.559 55.3612 568.559 56.4899C568.559 57.6025 568.31 58.5781 567.81 59.4166C567.31 60.2551 566.616 60.9082 565.73 61.3758C564.843 61.8273 563.811 62.053 562.634 62.053ZM562.706 60.3115C563.803 60.3115 564.689 59.9649 565.367 59.2715C566.044 58.5781 566.383 57.6429 566.383 56.4657C566.383 55.2402 566.052 54.2808 565.391 53.5874C564.746 52.8779 563.835 52.5232 562.658 52.5232C561.529 52.5232 560.586 52.8537 559.828 53.5149C559.086 54.176 558.715 55.087 558.715 56.248C558.715 57.0543 558.884 57.7638 559.223 58.3765C559.578 58.9893 560.054 59.465 560.65 59.8036C561.263 60.1422 561.948 60.3115 562.706 60.3115Z" fill="#50C1DB"/>
<path d="M765.652 62.053C764.281 62.053 763.08 61.6741 762.048 60.9162C761.032 60.1422 760.234 59.078 759.653 57.7235C759.089 56.3529 758.807 54.7887 758.807 53.0311C758.807 51.2735 759.089 49.7335 759.653 48.4113C760.218 47.0729 761.016 46.0329 762.048 45.2911C763.08 44.5332 764.281 44.1543 765.652 44.1543C767.022 44.1543 768.216 44.5332 769.231 45.2911C770.263 46.0329 771.062 47.0729 771.626 48.4113C772.207 49.7335 772.497 51.2735 772.497 53.0311C772.497 54.8049 772.207 56.369 771.626 57.7235C771.062 59.078 770.263 60.1422 769.231 60.9162C768.216 61.6741 767.022 62.053 765.652 62.053ZM765.652 60.3115C766.635 60.3115 767.474 60.0213 768.167 59.4408C768.861 58.8442 769.393 58.0057 769.764 56.9253C770.134 55.8288 770.32 54.5227 770.32 53.0069C770.32 51.5073 770.134 50.2254 769.764 49.1611C769.409 48.0969 768.885 47.2906 768.191 46.7424C767.498 46.178 766.651 45.8958 765.652 45.8958C764.652 45.8958 763.805 46.178 763.112 46.7424C762.419 47.3067 761.887 48.121 761.516 49.1853C761.161 50.2334 760.984 51.5073 760.984 53.0069C760.984 54.5227 761.169 55.8288 761.54 56.9253C761.911 58.0218 762.443 58.8603 763.136 59.4408C763.83 60.0213 764.668 60.3115 765.652 60.3115Z" fill="#50C1DB"/>
<path d="M750.205 62.053C748.979 62.053 747.915 61.8354 747.012 61.4C746.125 60.9646 745.44 60.368 744.956 59.6101C744.472 58.8522 744.23 58.0057 744.23 57.0704C744.23 56.1997 744.424 55.4095 744.811 54.7C745.198 53.9905 745.714 53.4262 746.359 53.0069C747.02 52.5877 747.746 52.378 748.536 52.378L748.584 52.886C747.842 52.886 747.173 52.7086 746.577 52.3539C745.98 51.983 745.512 51.4831 745.174 50.8542C744.835 50.2254 744.666 49.532 744.666 48.7741C744.666 47.8711 744.9 47.0729 745.367 46.3795C745.835 45.6862 746.488 45.146 747.326 44.759C748.165 44.3559 749.132 44.1543 750.229 44.1543C751.325 44.1543 752.285 44.3559 753.107 44.759C753.93 45.146 754.575 45.6862 755.042 46.3795C755.51 47.0729 755.744 47.863 755.744 48.7499C755.744 49.5239 755.574 50.2254 755.236 50.8542C754.897 51.467 754.43 51.9588 753.833 52.3297C753.236 52.7005 752.559 52.886 751.801 52.886L751.874 52.378C752.68 52.378 753.406 52.5877 754.051 53.0069C754.696 53.4262 755.212 53.9905 755.599 54.7C755.986 55.4095 756.179 56.1997 756.179 57.0704C756.179 58.0057 755.937 58.8522 755.453 59.6101C754.97 60.368 754.276 60.9646 753.373 61.4C752.486 61.8354 751.43 62.053 750.205 62.053ZM750.205 60.3115C751.382 60.3115 752.309 59.9971 752.986 59.3682C753.68 58.7394 754.026 57.9089 754.026 56.8769C754.026 55.8449 753.688 55.0306 753.011 54.434C752.333 53.8374 751.398 53.539 750.205 53.539C749.012 53.539 748.076 53.8374 747.399 54.434C746.722 55.0306 746.383 55.8449 746.383 56.8769C746.383 57.9089 746.722 58.7394 747.399 59.3682C748.092 59.9971 749.028 60.3115 750.205 60.3115ZM750.205 51.8459C751.269 51.8459 752.099 51.5799 752.696 51.0477C753.309 50.5156 753.615 49.8061 753.615 48.9192C753.615 48.0001 753.301 47.2664 752.672 46.7182C752.043 46.1699 751.221 45.8958 750.205 45.8958C749.173 45.8958 748.342 46.1699 747.713 46.7182C747.101 47.2664 746.794 48.0001 746.794 48.9192C746.794 49.8061 747.101 50.5156 747.713 51.0477C748.326 51.5799 749.157 51.8459 750.205 51.8459Z" fill="#50C1DB"/>
<path d="M954.296 62.053C952.926 62.053 951.724 61.6741 950.692 60.9162C949.676 60.1422 948.878 59.078 948.298 57.7235C947.733 56.3529 947.451 54.7887 947.451 53.0311C947.451 51.2735 947.733 49.7335 948.298 48.4113C948.862 47.0729 949.66 46.0329 950.692 45.2911C951.724 44.5332 952.926 44.1543 954.296 44.1543C955.667 44.1543 956.86 44.5332 957.876 45.2911C958.908 46.0329 959.706 47.0729 960.271 48.4113C960.851 49.7335 961.141 51.2735 961.141 53.0311C961.141 54.8049 960.851 56.369 960.271 57.7235C959.706 59.078 958.908 60.1422 957.876 60.9162C956.86 61.6741 955.667 62.053 954.296 62.053ZM954.296 60.3115C955.28 60.3115 956.118 60.0213 956.812 59.4408C957.505 58.8442 958.037 58.0057 958.408 56.9253C958.779 55.8288 958.964 54.5227 958.964 53.0069C958.964 51.5073 958.779 50.2254 958.408 49.1611C958.053 48.0969 957.529 47.2906 956.836 46.7424C956.143 46.178 955.296 45.8958 954.296 45.8958C953.296 45.8958 952.45 46.178 951.757 46.7424C951.063 47.3067 950.531 48.121 950.16 49.1853C949.805 50.2334 949.628 51.5073 949.628 53.0069C949.628 54.5227 949.813 55.8288 950.184 56.9253C950.555 58.0218 951.087 58.8603 951.781 59.4408C952.474 60.0213 953.313 60.3115 954.296 60.3115Z" fill="#50C1DB"/>
<path d="M938.257 62.053C937.241 62.053 936.33 61.8595 935.524 61.4725C934.718 61.0694 934.065 60.4809 933.565 59.7069C933.065 58.9167 932.742 57.9331 932.597 56.756H934.726C934.887 58.0137 935.282 58.9248 935.911 59.4892C936.54 60.0374 937.338 60.3115 938.306 60.3115C939.015 60.3115 939.628 60.1664 940.144 59.8762C940.66 59.5859 941.087 59.1425 941.426 58.5459C941.764 57.9492 942.014 57.1914 942.176 56.2722C942.337 55.337 942.417 54.2324 942.417 52.9585V51.3864L942.974 51.4589C942.829 52.2007 942.506 52.8618 942.006 53.4423C941.506 54.0067 940.886 54.4501 940.144 54.7726C939.402 55.079 938.604 55.2322 937.749 55.2322C936.685 55.2322 935.75 54.9984 934.944 54.5307C934.137 54.047 933.5 53.3859 933.033 52.5474C932.581 51.7089 932.355 50.7575 932.355 49.6932C932.355 48.5645 932.605 47.5889 933.105 46.7665C933.605 45.9442 934.299 45.3072 935.185 44.8557C936.088 44.3881 937.12 44.1543 938.281 44.1543C940.345 44.1543 941.91 44.9041 942.974 46.4037C944.054 47.9034 944.594 50.1044 944.594 53.0069C944.594 54.9419 944.344 56.5867 943.845 57.9412C943.361 59.2795 942.643 60.3035 941.692 61.013C940.757 61.7064 939.612 62.053 938.257 62.053ZM938.257 53.539C939.37 53.539 940.289 53.2246 941.015 52.5957C941.756 51.9669 942.127 51.0639 942.127 49.8867C942.127 49.0966 941.95 48.4032 941.595 47.8066C941.256 47.21 940.789 46.7424 940.192 46.4037C939.596 46.0651 938.918 45.8958 938.16 45.8958C937.08 45.8958 936.201 46.2425 935.524 46.9359C934.863 47.6131 934.532 48.5484 934.532 49.7416C934.532 50.8865 934.855 51.8056 935.5 52.499C936.161 53.1924 937.08 53.539 938.257 53.539Z" fill="#50C1DB"/>
<path d="M1150.43 62.053C1149.06 62.053 1147.86 61.6741 1146.82 60.9162C1145.81 60.1422 1145.01 59.078 1144.43 57.7235C1143.86 56.3529 1143.58 54.7887 1143.58 53.0311C1143.58 51.2735 1143.86 49.7335 1144.43 48.4113C1144.99 47.0729 1145.79 46.0329 1146.82 45.2911C1147.86 44.5332 1149.06 44.1543 1150.43 44.1543C1151.8 44.1543 1152.99 44.5332 1154.01 45.2911C1155.04 46.0329 1155.84 47.0729 1156.4 48.4113C1156.98 49.7335 1157.27 51.2735 1157.27 53.0311C1157.27 54.8049 1156.98 56.369 1156.4 57.7235C1155.84 59.078 1155.04 60.1422 1154.01 60.9162C1152.99 61.6741 1151.8 62.053 1150.43 62.053ZM1150.43 60.3115C1151.41 60.3115 1152.25 60.0213 1152.94 59.4408C1153.64 58.8442 1154.17 58.0057 1154.54 56.9253C1154.91 55.8288 1155.1 54.5227 1155.1 53.0069C1155.1 51.5073 1154.91 50.2254 1154.54 49.1611C1154.18 48.0969 1153.66 47.2906 1152.97 46.7424C1152.27 46.178 1151.43 45.8958 1150.43 45.8958C1149.43 45.8958 1148.58 46.178 1147.89 46.7424C1147.19 47.3067 1146.66 48.121 1146.29 49.1853C1145.94 50.2334 1145.76 51.5073 1145.76 53.0069C1145.76 54.5227 1145.94 55.8288 1146.32 56.9253C1146.69 58.0218 1147.22 58.8603 1147.91 59.4408C1148.6 60.0213 1149.44 60.3115 1150.43 60.3115Z" fill="#50C1DB"/>
<path d="M1129.83 61.8112V60.118C1131.57 58.6829 1133.03 57.4252 1134.19 56.3448C1135.36 55.2644 1136.3 54.305 1136.99 53.4665C1137.7 52.628 1138.2 51.862 1138.49 51.1687C1138.8 50.4592 1138.95 49.7658 1138.95 49.0885C1138.95 48.0888 1138.65 47.3067 1138.06 46.7424C1137.46 46.178 1136.64 45.8958 1135.59 45.8958C1134.51 45.8958 1133.64 46.2022 1132.98 46.8149C1132.32 47.4277 1131.91 48.3065 1131.77 49.4514H1129.69C1129.85 47.8711 1130.45 46.5972 1131.5 45.6297C1132.57 44.6461 1133.98 44.1543 1135.73 44.1543C1137.36 44.1543 1138.66 44.5897 1139.63 45.4604C1140.6 46.3312 1141.08 47.5244 1141.08 49.0402C1141.08 49.8625 1140.92 50.6849 1140.6 51.5073C1140.29 52.3297 1139.77 53.1924 1139.05 54.0954C1138.34 54.9984 1137.4 55.9981 1136.22 57.0946C1135.06 58.175 1133.61 59.4005 1131.89 60.7711L1131.43 60.0697H1141.37V61.8112H1129.83Z" fill="#50C1DB"/>
<path d="M1124.86 61.8105V46.3789L1125.36 46.4998C1125.17 46.9352 1124.8 47.3706 1124.25 47.8059C1123.7 48.2413 1123.07 48.6203 1122.34 48.9428C1121.63 49.2653 1120.9 49.4829 1120.14 49.5958V47.7334C1120.9 47.6044 1121.62 47.3786 1122.32 47.0561C1123.01 46.7336 1123.62 46.3466 1124.15 45.8951C1124.7 45.4275 1125.11 44.9276 1125.36 44.3955H1126.79V61.8105H1124.86Z" fill="#50C1DB"/>
<path d="M1333.74 62.053C1332.37 62.053 1331.17 61.6741 1330.14 60.9162C1329.12 60.1422 1328.33 59.078 1327.75 57.7235C1327.18 56.3529 1326.9 54.7887 1326.9 53.0311C1326.9 51.2735 1327.18 49.7335 1327.75 48.4113C1328.31 47.0729 1329.11 46.0329 1330.14 45.2911C1331.17 44.5332 1332.37 44.1543 1333.74 44.1543C1335.11 44.1543 1336.31 44.5332 1337.32 45.2911C1338.36 46.0329 1339.15 47.0729 1339.72 48.4113C1340.3 49.7335 1340.59 51.2735 1340.59 53.0311C1340.59 54.8049 1340.3 56.369 1339.72 57.7235C1339.15 59.078 1338.36 60.1422 1337.32 60.9162C1336.31 61.6741 1335.11 62.053 1333.74 62.053ZM1333.74 60.3115C1334.73 60.3115 1335.57 60.0213 1336.26 59.4408C1336.95 58.8442 1337.48 58.0057 1337.86 56.9253C1338.23 55.8288 1338.41 54.5227 1338.41 53.0069C1338.41 51.5073 1338.23 50.2254 1337.86 49.1611C1337.5 48.0969 1336.98 47.2906 1336.28 46.7424C1335.59 46.178 1334.74 45.8958 1333.74 45.8958C1332.74 45.8958 1331.9 46.178 1331.2 46.7424C1330.51 47.3067 1329.98 48.121 1329.61 49.1853C1329.25 50.2334 1329.08 51.5073 1329.08 53.0069C1329.08 54.5227 1329.26 55.8288 1329.63 56.9253C1330 58.0218 1330.53 58.8603 1331.23 59.4408C1331.92 60.0213 1332.76 60.3115 1333.74 60.3115Z" fill="#50C1DB"/>
<path d="M1320.67 61.8105V57.2149L1320.72 56.7311V46.7901H1321.37L1314.02 56.8521L1313.36 56.0539H1324.97V57.7954H1312.01V56.2958L1320.77 44.3955H1322.75V61.8105H1320.67Z" fill="#50C1DB"/>
<path d="M1307.61 61.8105V46.3789L1308.11 46.4998C1307.92 46.9352 1307.55 47.3706 1307 47.8059C1306.45 48.2413 1305.82 48.6203 1305.09 48.9428C1304.38 49.2653 1303.65 49.4829 1302.89 49.5958V47.7334C1303.65 47.6044 1304.37 47.3786 1305.07 47.0561C1305.76 46.7336 1306.37 46.3466 1306.9 45.8951C1307.45 45.4275 1307.86 44.9276 1308.11 44.3955H1309.54V61.8105H1307.61Z" fill="#50C1DB"/>
<path d="M1522.67 62.053C1521.3 62.053 1520.1 61.6741 1519.07 60.9162C1518.05 60.1422 1517.25 59.078 1516.67 57.7235C1516.11 56.3529 1515.83 54.7887 1515.83 53.0311C1515.83 51.2735 1516.11 49.7335 1516.67 48.4113C1517.24 47.0729 1518.04 46.0329 1519.07 45.2911C1520.1 44.5332 1521.3 44.1543 1522.67 44.1543C1524.04 44.1543 1525.24 44.5332 1526.25 45.2911C1527.28 46.0329 1528.08 47.0729 1528.65 48.4113C1529.23 49.7335 1529.52 51.2735 1529.52 53.0311C1529.52 54.8049 1529.23 56.369 1528.65 57.7235C1528.08 59.078 1527.28 60.1422 1526.25 60.9162C1525.24 61.6741 1524.04 62.053 1522.67 62.053ZM1522.67 60.3115C1523.65 60.3115 1524.49 60.0213 1525.19 59.4408C1525.88 58.8442 1526.41 58.0057 1526.78 56.9253C1527.15 55.8288 1527.34 54.5227 1527.34 53.0069C1527.34 51.5073 1527.15 50.2254 1526.78 49.1611C1526.43 48.0969 1525.9 47.2906 1525.21 46.7424C1524.52 46.178 1523.67 45.8958 1522.67 45.8958C1521.67 45.8958 1520.82 46.178 1520.13 46.7424C1519.44 47.3067 1518.91 48.121 1518.54 49.1853C1518.18 50.2334 1518 51.5073 1518 53.0069C1518 54.5227 1518.19 55.8288 1518.56 56.9253C1518.93 58.0218 1519.46 58.8603 1520.16 59.4408C1520.85 60.0213 1521.69 60.3115 1522.67 60.3115Z" fill="#50C1DB"/>
<path d="M1507.33 62.053C1505.28 62.053 1503.7 61.3113 1502.59 59.8278C1501.49 58.3282 1500.95 56.1674 1500.95 53.3455C1500.95 51.3944 1501.2 49.7335 1501.72 48.3629C1502.25 46.9923 1503.01 45.9522 1503.99 45.2427C1504.98 44.5171 1506.15 44.1543 1507.5 44.1543C1508.98 44.1543 1510.21 44.5816 1511.18 45.4362C1512.14 46.2909 1512.73 47.468 1512.94 48.9676H1510.81C1510.67 47.9679 1510.3 47.21 1509.7 46.694C1509.12 46.1619 1508.38 45.8958 1507.48 45.8958C1506.04 45.8958 1504.95 46.5085 1504.21 47.734C1503.48 48.9595 1503.12 50.7978 1503.12 53.2488V54.821L1502.57 54.6033C1502.71 53.8454 1503.03 53.1843 1503.53 52.6199C1504.03 52.0555 1504.65 51.6202 1505.4 51.3138C1506.14 50.9913 1506.94 50.83 1507.79 50.83C1508.89 50.83 1509.84 51.0719 1510.64 51.5557C1511.47 52.0233 1512.1 52.6844 1512.56 53.539C1513.02 54.3775 1513.26 55.3612 1513.26 56.4899C1513.26 57.6025 1513.01 58.5781 1512.51 59.4166C1512.01 60.2551 1511.31 60.9082 1510.43 61.3758C1509.54 61.8273 1508.51 62.053 1507.33 62.053ZM1507.4 60.3115C1508.5 60.3115 1509.39 59.9649 1510.06 59.2715C1510.74 58.5781 1511.08 57.6429 1511.08 56.4657C1511.08 55.2402 1510.75 54.2808 1510.09 53.5874C1509.44 52.8779 1508.53 52.5232 1507.36 52.5232C1506.23 52.5232 1505.28 52.8537 1504.53 53.5149C1503.78 54.176 1503.41 55.087 1503.41 56.248C1503.41 57.0543 1503.58 57.7638 1503.92 58.3765C1504.28 58.9893 1504.75 59.465 1505.35 59.8036C1505.96 60.1422 1506.65 60.3115 1507.4 60.3115Z" fill="#50C1DB"/>
<path d="M1495.73 61.8105V46.3789L1496.24 46.4998C1496.04 46.9352 1495.67 47.3706 1495.13 47.8059C1494.58 48.2413 1493.94 48.6203 1493.21 48.9428C1492.51 49.2653 1491.77 49.4829 1491.01 49.5958V47.7334C1491.77 47.6044 1492.5 47.3786 1493.19 47.0561C1493.88 46.7336 1494.5 46.3466 1495.03 45.8951C1495.58 45.4275 1495.98 44.9276 1496.24 44.3955H1497.67V61.8105H1495.73Z" fill="#50C1DB"/>
<path d="M1713.04 62.053C1711.67 62.053 1710.46 61.6741 1709.43 60.9162C1708.42 60.1422 1707.62 59.078 1707.04 57.7235C1706.47 56.3529 1706.19 54.7887 1706.19 53.0311C1706.19 51.2735 1706.47 49.7335 1707.04 48.4113C1707.6 47.0729 1708.4 46.0329 1709.43 45.2911C1710.46 44.5332 1711.67 44.1543 1713.04 44.1543C1714.41 44.1543 1715.6 44.5332 1716.62 45.2911C1717.65 46.0329 1718.45 47.0729 1719.01 48.4113C1719.59 49.7335 1719.88 51.2735 1719.88 53.0311C1719.88 54.8049 1719.59 56.369 1719.01 57.7235C1718.45 59.078 1717.65 60.1422 1716.62 60.9162C1715.6 61.6741 1714.41 62.053 1713.04 62.053ZM1713.04 60.3115C1714.02 60.3115 1714.86 60.0213 1715.55 59.4408C1716.25 58.8442 1716.78 58.0057 1717.15 56.9253C1717.52 55.8288 1717.7 54.5227 1717.7 53.0069C1717.7 51.5073 1717.52 50.2254 1717.15 49.1611C1716.79 48.0969 1716.27 47.2906 1715.58 46.7424C1714.88 46.178 1714.04 45.8958 1713.04 45.8958C1712.04 45.8958 1711.19 46.178 1710.5 46.7424C1709.8 47.3067 1709.27 48.121 1708.9 49.1853C1708.55 50.2334 1708.37 51.5073 1708.37 53.0069C1708.37 54.5227 1708.55 55.8288 1708.92 56.9253C1709.3 58.0218 1709.83 58.8603 1710.52 59.4408C1711.21 60.0213 1712.05 60.3115 1713.04 60.3115Z" fill="#50C1DB"/>
<path d="M1697.59 62.053C1696.36 62.053 1695.3 61.8354 1694.39 61.4C1693.51 60.9646 1692.82 60.368 1692.34 59.6101C1691.86 58.8522 1691.61 58.0057 1691.61 57.0704C1691.61 56.1997 1691.81 55.4095 1692.19 54.7C1692.58 53.9905 1693.1 53.4262 1693.74 53.0069C1694.4 52.5877 1695.13 52.378 1695.92 52.378L1695.97 52.886C1695.23 52.886 1694.56 52.7086 1693.96 52.3539C1693.36 51.983 1692.9 51.4831 1692.56 50.8542C1692.22 50.2254 1692.05 49.532 1692.05 48.7741C1692.05 47.8711 1692.28 47.0729 1692.75 46.3795C1693.22 45.6862 1693.87 45.146 1694.71 44.759C1695.55 44.3559 1696.52 44.1543 1697.61 44.1543C1698.71 44.1543 1699.67 44.3559 1700.49 44.759C1701.31 45.146 1701.96 45.6862 1702.43 46.3795C1702.89 47.0729 1703.13 47.863 1703.13 48.7499C1703.13 49.5239 1702.96 50.2254 1702.62 50.8542C1702.28 51.467 1701.81 51.9588 1701.22 52.3297C1700.62 52.7005 1699.94 52.886 1699.18 52.886L1699.26 52.378C1700.06 52.378 1700.79 52.5877 1701.43 53.0069C1702.08 53.4262 1702.59 53.9905 1702.98 54.7C1703.37 55.4095 1703.56 56.1997 1703.56 57.0704C1703.56 58.0057 1703.32 58.8522 1702.84 59.6101C1702.35 60.368 1701.66 60.9646 1700.76 61.4C1699.87 61.8354 1698.81 62.053 1697.59 62.053ZM1697.59 60.3115C1698.76 60.3115 1699.69 59.9971 1700.37 59.3682C1701.06 58.7394 1701.41 57.9089 1701.41 56.8769C1701.41 55.8449 1701.07 55.0306 1700.39 54.434C1699.72 53.8374 1698.78 53.539 1697.59 53.539C1696.39 53.539 1695.46 53.8374 1694.78 54.434C1694.1 55.0306 1693.77 55.8449 1693.77 56.8769C1693.77 57.9089 1694.1 58.7394 1694.78 59.3682C1695.48 59.9971 1696.41 60.3115 1697.59 60.3115ZM1697.59 51.8459C1698.65 51.8459 1699.48 51.5799 1700.08 51.0477C1700.69 50.5156 1701 49.8061 1701 48.9192C1701 48.0001 1700.68 47.2664 1700.05 46.7182C1699.43 46.1699 1698.6 45.8958 1697.59 45.8958C1696.56 45.8958 1695.73 46.1699 1695.1 46.7182C1694.48 47.2664 1694.18 48.0001 1694.18 48.9192C1694.18 49.8061 1694.48 50.5156 1695.1 51.0477C1695.71 51.5799 1696.54 51.8459 1697.59 51.8459Z" fill="#50C1DB"/>
<path d="M1686.54 61.8105V46.3789L1687.05 46.4998C1686.86 46.9352 1686.49 47.3706 1685.94 47.8059C1685.39 48.2413 1684.75 48.6203 1684.03 48.9428C1683.32 49.2653 1682.58 49.4829 1681.83 49.5958V47.7334C1682.58 47.6044 1683.31 47.3786 1684 47.0561C1684.7 46.7336 1685.31 46.3466 1685.84 45.8951C1686.39 45.4275 1686.79 44.9276 1687.05 44.3955H1688.48V61.8105H1686.54Z" fill="#50C1DB"/>
<path d="M1907.26 62.053C1905.89 62.053 1904.69 61.6741 1903.65 60.9162C1902.64 60.1422 1901.84 59.078 1901.26 57.7235C1900.69 56.3529 1900.41 54.7887 1900.41 53.0311C1900.41 51.2735 1900.69 49.7335 1901.26 48.4113C1901.82 47.0729 1902.62 46.0329 1903.65 45.2911C1904.69 44.5332 1905.89 44.1543 1907.26 44.1543C1908.63 44.1543 1909.82 44.5332 1910.84 45.2911C1911.87 46.0329 1912.67 47.0729 1913.23 48.4113C1913.81 49.7335 1914.1 51.2735 1914.1 53.0311C1914.1 54.8049 1913.81 56.369 1913.23 57.7235C1912.67 59.078 1911.87 60.1422 1910.84 60.9162C1909.82 61.6741 1908.63 62.053 1907.26 62.053ZM1907.26 60.3115C1908.24 60.3115 1909.08 60.0213 1909.77 59.4408C1910.47 58.8442 1911 58.0057 1911.37 56.9253C1911.74 55.8288 1911.93 54.5227 1911.93 53.0069C1911.93 51.5073 1911.74 50.2254 1911.37 49.1611C1911.01 48.0969 1910.49 47.2906 1909.8 46.7424C1909.1 46.178 1908.26 45.8958 1907.26 45.8958C1906.26 45.8958 1905.41 46.178 1904.72 46.7424C1904.02 47.3067 1903.49 48.121 1903.12 49.1853C1902.77 50.2334 1902.59 51.5073 1902.59 53.0069C1902.59 54.5227 1902.77 55.8288 1903.15 56.9253C1903.52 58.0218 1904.05 58.8603 1904.74 59.4408C1905.44 60.0213 1906.27 60.3115 1907.26 60.3115Z" fill="#50C1DB"/>
<path d="M1890.79 62.053C1889.42 62.053 1888.22 61.6741 1887.19 60.9162C1886.17 60.1422 1885.37 59.078 1884.79 57.7235C1884.23 56.3529 1883.95 54.7887 1883.95 53.0311C1883.95 51.2735 1884.23 49.7335 1884.79 48.4113C1885.36 47.0729 1886.15 46.0329 1887.19 45.2911C1888.22 44.5332 1889.42 44.1543 1890.79 44.1543C1892.16 44.1543 1893.35 44.5332 1894.37 45.2911C1895.4 46.0329 1896.2 47.0729 1896.76 48.4113C1897.35 49.7335 1897.64 51.2735 1897.64 53.0311C1897.64 54.8049 1897.35 56.369 1896.76 57.7235C1896.2 59.078 1895.4 60.1422 1894.37 60.9162C1893.35 61.6741 1892.16 62.053 1890.79 62.053ZM1890.79 60.3115C1891.77 60.3115 1892.61 60.0213 1893.31 59.4408C1894 58.8442 1894.53 58.0057 1894.9 56.9253C1895.27 55.8288 1895.46 54.5227 1895.46 53.0069C1895.46 51.5073 1895.27 50.2254 1894.9 49.1611C1894.55 48.0969 1894.02 47.2906 1893.33 46.7424C1892.64 46.178 1891.79 45.8958 1890.79 45.8958C1889.79 45.8958 1888.94 46.178 1888.25 46.7424C1887.56 47.3067 1887.03 48.121 1886.65 49.1853C1886.3 50.2334 1886.12 51.5073 1886.12 53.0069C1886.12 54.5227 1886.31 55.8288 1886.68 56.9253C1887.05 58.0218 1887.58 58.8603 1888.27 59.4408C1888.97 60.0213 1889.81 60.3115 1890.79 60.3115Z" fill="#50C1DB"/>
<path d="M1870.2 61.8112V60.118C1871.94 58.6829 1873.39 57.4252 1874.55 56.3448C1875.73 55.2644 1876.66 54.305 1877.36 53.4665C1878.06 52.628 1878.56 51.862 1878.86 51.1687C1879.16 50.4592 1879.31 49.7658 1879.31 49.0885C1879.31 48.0888 1879.02 47.3067 1878.42 46.7424C1877.82 46.178 1877 45.8958 1875.95 45.8958C1874.87 45.8958 1874 46.2022 1873.34 46.8149C1872.68 47.4277 1872.28 48.3065 1872.13 49.4514H1870.05C1870.21 47.8711 1870.82 46.5972 1871.86 45.6297C1872.93 44.6461 1874.34 44.1543 1876.1 44.1543C1877.73 44.1543 1879.02 44.5897 1879.99 45.4604C1880.96 46.3312 1881.44 47.5244 1881.44 49.0402C1881.44 49.8625 1881.28 50.6849 1880.96 51.5073C1880.65 52.3297 1880.14 53.1924 1879.41 54.0954C1878.7 54.9984 1877.76 55.9981 1876.58 57.0946C1875.42 58.175 1873.98 59.4005 1872.25 60.7711L1871.79 60.0697H1881.73V61.8112H1870.2Z" fill="#50C1DB"/>
<path d="M2087 62.053C2085.63 62.053 2084.43 61.6741 2083.4 60.9162C2082.38 60.1422 2081.59 59.078 2081 57.7235C2080.44 56.3529 2080.16 54.7887 2080.16 53.0311C2080.16 51.2735 2080.44 49.7335 2081 48.4113C2081.57 47.0729 2082.37 46.0329 2083.4 45.2911C2084.43 44.5332 2085.63 44.1543 2087 44.1543C2088.37 44.1543 2089.57 44.5332 2090.58 45.2911C2091.62 46.0329 2092.41 47.0729 2092.98 48.4113C2093.56 49.7335 2093.85 51.2735 2093.85 53.0311C2093.85 54.8049 2093.56 56.369 2092.98 57.7235C2092.41 59.078 2091.62 60.1422 2090.58 60.9162C2089.57 61.6741 2088.37 62.053 2087 62.053ZM2087 60.3115C2087.99 60.3115 2088.83 60.0213 2089.52 59.4408C2090.21 58.8442 2090.74 58.0057 2091.12 56.9253C2091.49 55.8288 2091.67 54.5227 2091.67 53.0069C2091.67 51.5073 2091.49 50.2254 2091.12 49.1611C2090.76 48.0969 2090.24 47.2906 2089.54 46.7424C2088.85 46.178 2088 45.8958 2087 45.8958C2086 45.8958 2085.16 46.178 2084.46 46.7424C2083.77 47.3067 2083.24 48.121 2082.87 49.1853C2082.51 50.2334 2082.34 51.5073 2082.34 53.0069C2082.34 54.5227 2082.52 55.8288 2082.89 56.9253C2083.26 58.0218 2083.79 58.8603 2084.49 59.4408C2085.18 60.0213 2086.02 60.3115 2087 60.3115Z" fill="#50C1DB"/>
<path d="M2066.41 61.8112V60.118C2068.15 58.6829 2069.6 57.4252 2070.76 56.3448C2071.94 55.2644 2072.87 54.305 2073.57 53.4665C2074.28 52.628 2074.78 51.862 2075.07 51.1687C2075.37 50.4592 2075.53 49.7658 2075.53 49.0885C2075.53 48.0888 2075.23 47.3067 2074.63 46.7424C2074.04 46.178 2073.21 45.8958 2072.17 45.8958C2071.09 45.8958 2070.21 46.2022 2069.55 46.8149C2068.89 47.4277 2068.49 48.3065 2068.34 49.4514H2066.26C2066.42 47.8711 2067.03 46.5972 2068.08 45.6297C2069.14 44.6461 2070.55 44.1543 2072.31 44.1543C2073.94 44.1543 2075.24 44.5897 2076.2 45.4604C2077.17 46.3312 2077.66 47.5244 2077.66 49.0402C2077.66 49.8625 2077.49 50.6849 2077.17 51.5073C2076.87 52.3297 2076.35 53.1924 2075.62 54.0954C2074.91 54.9984 2073.97 55.9981 2072.79 57.0946C2071.63 58.175 2070.19 59.4005 2068.46 60.7711L2068.01 60.0697H2077.95V61.8112H2066.41Z" fill="#50C1DB"/>
<path d="M2052.95 61.8112V60.118C2054.69 58.6829 2056.14 57.4252 2057.3 56.3448C2058.48 55.2644 2059.41 54.305 2060.11 53.4665C2060.81 52.628 2061.31 51.862 2061.61 51.1687C2061.91 50.4592 2062.06 49.7658 2062.06 49.0885C2062.06 48.0888 2061.77 47.3067 2061.17 46.7424C2060.57 46.178 2059.75 45.8958 2058.7 45.8958C2057.62 45.8958 2056.75 46.2022 2056.09 46.8149C2055.43 47.4277 2055.03 48.3065 2054.88 49.4514H2052.8C2052.96 47.8711 2053.57 46.5972 2054.61 45.6297C2055.68 44.6461 2057.09 44.1543 2058.85 44.1543C2060.48 44.1543 2061.77 44.5897 2062.74 45.4604C2063.71 46.3312 2064.19 47.5244 2064.19 49.0402C2064.19 49.8625 2064.03 50.6849 2063.71 51.5073C2063.4 52.3297 2062.89 53.1924 2062.16 54.0954C2061.45 54.9984 2060.51 55.9981 2059.33 57.0946C2058.17 58.175 2056.73 59.4005 2055 60.7711L2054.54 60.0697H2064.48V61.8112H2052.95Z" fill="#50C1DB"/>
<path d="M2277.68 62.053C2276.3 62.053 2275.1 61.6741 2274.07 60.9162C2273.06 60.1422 2272.26 59.078 2271.68 57.7235C2271.11 56.3529 2270.83 54.7887 2270.83 53.0311C2270.83 51.2735 2271.11 49.7335 2271.68 48.4113C2272.24 47.0729 2273.04 46.0329 2274.07 45.2911C2275.1 44.5332 2276.3 44.1543 2277.68 44.1543C2279.05 44.1543 2280.24 44.5332 2281.25 45.2911C2282.29 46.0329 2283.09 47.0729 2283.65 48.4113C2284.23 49.7335 2284.52 51.2735 2284.52 53.0311C2284.52 54.8049 2284.23 56.369 2283.65 57.7235C2283.09 59.078 2282.29 60.1422 2281.25 60.9162C2280.24 61.6741 2279.05 62.053 2277.68 62.053ZM2277.68 60.3115C2278.66 60.3115 2279.5 60.0213 2280.19 59.4408C2280.88 58.8442 2281.42 58.0057 2281.79 56.9253C2282.16 55.8288 2282.34 54.5227 2282.34 53.0069C2282.34 51.5073 2282.16 50.2254 2281.79 49.1611C2281.43 48.0969 2280.91 47.2906 2280.21 46.7424C2279.52 46.178 2278.67 45.8958 2277.68 45.8958C2276.68 45.8958 2275.83 46.178 2275.14 46.7424C2274.44 47.3067 2273.91 48.121 2273.54 49.1853C2273.18 50.2334 2273.01 51.5073 2273.01 53.0069C2273.01 54.5227 2273.19 55.8288 2273.56 56.9253C2273.93 58.0218 2274.47 58.8603 2275.16 59.4408C2275.85 60.0213 2276.69 60.3115 2277.68 60.3115Z" fill="#50C1DB"/>
<path d="M2264.6 61.8105V57.2149L2264.65 56.7311V46.7901H2265.3L2257.95 56.8521L2257.3 56.0539H2268.91V57.7954H2255.94V56.2958L2264.7 44.3955H2266.68V61.8105H2264.6Z" fill="#50C1DB"/>
<path d="M2243.76 61.8112V60.118C2245.5 58.6829 2246.95 57.4252 2248.11 56.3448C2249.29 55.2644 2250.22 54.305 2250.92 53.4665C2251.63 52.628 2252.13 51.862 2252.42 51.1687C2252.72 50.4592 2252.88 49.7658 2252.88 49.0885C2252.88 48.0888 2252.58 47.3067 2251.98 46.7424C2251.39 46.178 2250.56 45.8958 2249.52 45.8958C2248.43 45.8958 2247.56 46.2022 2246.9 46.8149C2246.24 47.4277 2245.84 48.3065 2245.69 49.4514H2243.61C2243.77 47.8711 2244.38 46.5972 2245.43 45.6297C2246.49 44.6461 2247.9 44.1543 2249.66 44.1543C2251.29 44.1543 2252.59 44.5897 2253.55 45.4604C2254.52 46.3312 2255.01 47.5244 2255.01 49.0402C2255.01 49.8625 2254.84 50.6849 2254.52 51.5073C2254.22 52.3297 2253.7 53.1924 2252.97 54.0954C2252.26 54.9984 2251.32 55.9981 2250.14 57.0946C2248.98 58.175 2247.54 59.4005 2245.81 60.7711L2245.35 60.0697H2255.3V61.8112H2243.76Z" fill="#50C1DB"/>
<path d="M2467.36 62.053C2465.99 62.053 2464.79 61.6741 2463.75 60.9162C2462.74 60.1422 2461.94 59.078 2461.36 57.7235C2460.8 56.3529 2460.51 54.7887 2460.51 53.0311C2460.51 51.2735 2460.8 49.7335 2461.36 48.4113C2461.92 47.0729 2462.72 46.0329 2463.75 45.2911C2464.79 44.5332 2465.99 44.1543 2467.36 44.1543C2468.73 44.1543 2469.92 44.5332 2470.94 45.2911C2471.97 46.0329 2472.77 47.0729 2473.33 48.4113C2473.91 49.7335 2474.2 51.2735 2474.2 53.0311C2474.2 54.8049 2473.91 56.369 2473.33 57.7235C2472.77 59.078 2471.97 60.1422 2470.94 60.9162C2469.92 61.6741 2468.73 62.053 2467.36 62.053ZM2467.36 60.3115C2468.34 60.3115 2469.18 60.0213 2469.87 59.4408C2470.57 58.8442 2471.1 58.0057 2471.47 56.9253C2471.84 55.8288 2472.03 54.5227 2472.03 53.0069C2472.03 51.5073 2471.84 50.2254 2471.47 49.1611C2471.12 48.0969 2470.59 47.2906 2469.9 46.7424C2469.21 46.178 2468.36 45.8958 2467.36 45.8958C2466.36 45.8958 2465.51 46.178 2464.82 46.7424C2464.13 47.3067 2463.59 48.121 2463.22 49.1853C2462.87 50.2334 2462.69 51.5073 2462.69 53.0069C2462.69 54.5227 2462.88 55.8288 2463.25 56.9253C2463.62 58.0218 2464.15 58.8603 2464.84 59.4408C2465.54 60.0213 2466.38 60.3115 2467.36 60.3115Z" fill="#50C1DB"/>
<path d="M2452.02 62.053C2449.97 62.053 2448.39 61.3113 2447.28 59.8278C2446.18 58.3282 2445.63 56.1674 2445.63 53.3455C2445.63 51.3944 2445.89 49.7335 2446.41 48.3629C2446.94 46.9923 2447.7 45.9522 2448.68 45.2427C2449.66 44.5171 2450.83 44.1543 2452.19 44.1543C2453.67 44.1543 2454.9 44.5816 2455.86 45.4362C2456.83 46.2909 2457.42 47.468 2457.63 48.9676H2455.5C2455.36 47.9679 2454.99 47.21 2454.39 46.694C2453.81 46.1619 2453.07 45.8958 2452.16 45.8958C2450.73 45.8958 2449.64 46.5085 2448.9 47.734C2448.17 48.9595 2447.81 50.7978 2447.81 53.2488V54.821L2447.25 54.6033C2447.4 53.8454 2447.72 53.1843 2448.22 52.6199C2448.72 52.0555 2449.34 51.6202 2450.08 51.3138C2450.83 50.9913 2451.62 50.83 2452.48 50.83C2453.57 50.83 2454.53 51.0719 2455.33 51.5557C2456.15 52.0233 2456.79 52.6844 2457.24 53.539C2457.71 54.3775 2457.94 55.3612 2457.94 56.4899C2457.94 57.6025 2457.69 58.5781 2457.19 59.4166C2456.69 60.2551 2456 60.9082 2455.11 61.3758C2454.23 61.8273 2453.2 62.053 2452.02 62.053ZM2452.09 60.3115C2453.19 60.3115 2454.07 59.9649 2454.75 59.2715C2455.43 58.5781 2455.77 57.6429 2455.77 56.4657C2455.77 55.2402 2455.44 54.2808 2454.78 53.5874C2454.13 52.8779 2453.22 52.5232 2452.04 52.5232C2450.91 52.5232 2449.97 52.8537 2449.21 53.5149C2448.47 54.176 2448.1 55.087 2448.1 56.248C2448.1 57.0543 2448.27 57.7638 2448.61 58.3765C2448.96 58.9893 2449.44 59.465 2450.03 59.8036C2450.65 60.1422 2451.33 60.3115 2452.09 60.3115Z" fill="#50C1DB"/>
<path d="M2431.88 61.8112V60.118C2433.62 58.6829 2435.08 57.4252 2436.24 56.3448C2437.41 55.2644 2438.35 54.305 2439.04 53.4665C2439.75 52.628 2440.25 51.862 2440.54 51.1687C2440.85 50.4592 2441 49.7658 2441 49.0885C2441 48.0888 2440.7 47.3067 2440.11 46.7424C2439.51 46.178 2438.69 45.8958 2437.64 45.8958C2436.56 45.8958 2435.69 46.2022 2435.03 46.8149C2434.37 47.4277 2433.96 48.3065 2433.82 49.4514H2431.74C2431.9 47.8711 2432.5 46.5972 2433.55 45.6297C2434.62 44.6461 2436.03 44.1543 2437.79 44.1543C2439.41 44.1543 2440.71 44.5897 2441.68 45.4604C2442.65 46.3312 2443.13 47.5244 2443.13 49.0402C2443.13 49.8625 2442.97 50.6849 2442.65 51.5073C2442.34 52.3297 2441.82 53.1924 2441.1 54.0954C2440.39 54.9984 2439.45 55.9981 2438.27 57.0946C2437.11 58.175 2435.66 59.4005 2433.94 60.7711L2433.48 60.0697H2443.42V61.8112H2431.88Z" fill="#50C1DB"/>
<path d="M2657.7 62.053C2656.33 62.053 2655.13 61.6741 2654.09 60.9162C2653.08 60.1422 2652.28 59.078 2651.7 57.7235C2651.14 56.3529 2650.85 54.7887 2650.85 53.0311C2650.85 51.2735 2651.14 49.7335 2651.7 48.4113C2652.26 47.0729 2653.06 46.0329 2654.09 45.2911C2655.13 44.5332 2656.33 44.1543 2657.7 44.1543C2659.07 44.1543 2660.26 44.5332 2661.28 45.2911C2662.31 46.0329 2663.11 47.0729 2663.67 48.4113C2664.25 49.7335 2664.54 51.2735 2664.54 53.0311C2664.54 54.8049 2664.25 56.369 2663.67 57.7235C2663.11 59.078 2662.31 60.1422 2661.28 60.9162C2660.26 61.6741 2659.07 62.053 2657.7 62.053ZM2657.7 60.3115C2658.68 60.3115 2659.52 60.0213 2660.21 59.4408C2660.91 58.8442 2661.44 58.0057 2661.81 56.9253C2662.18 55.8288 2662.37 54.5227 2662.37 53.0069C2662.37 51.5073 2662.18 50.2254 2661.81 49.1611C2661.46 48.0969 2660.93 47.2906 2660.24 46.7424C2659.54 46.178 2658.7 45.8958 2657.7 45.8958C2656.7 45.8958 2655.85 46.178 2655.16 46.7424C2654.47 47.3067 2653.93 48.121 2653.56 49.1853C2653.21 50.2334 2653.03 51.5073 2653.03 53.0069C2653.03 54.5227 2653.22 55.8288 2653.59 56.9253C2653.96 58.0218 2654.49 58.8603 2655.18 59.4408C2655.88 60.0213 2656.71 60.3115 2657.7 60.3115Z" fill="#50C1DB"/>
<path d="M2642.25 62.053C2641.02 62.053 2639.96 61.8354 2639.06 61.4C2638.17 60.9646 2637.48 60.368 2637 59.6101C2636.52 58.8522 2636.28 58.0057 2636.28 57.0704C2636.28 56.1997 2636.47 55.4095 2636.86 54.7C2637.24 53.9905 2637.76 53.4262 2638.4 53.0069C2639.07 52.5877 2639.79 52.378 2640.58 52.378L2640.63 52.886C2639.89 52.886 2639.22 52.7086 2638.62 52.3539C2638.02 51.983 2637.56 51.4831 2637.22 50.8542C2636.88 50.2254 2636.71 49.532 2636.71 48.7741C2636.71 47.8711 2636.94 47.0729 2637.41 46.3795C2637.88 45.6862 2638.53 45.146 2639.37 44.759C2640.21 44.3559 2641.18 44.1543 2642.27 44.1543C2643.37 44.1543 2644.33 44.3559 2645.15 44.759C2645.97 45.146 2646.62 45.6862 2647.09 46.3795C2647.55 47.0729 2647.79 47.863 2647.79 48.7499C2647.79 49.5239 2647.62 50.2254 2647.28 50.8542C2646.94 51.467 2646.47 51.9588 2645.88 52.3297C2645.28 52.7005 2644.6 52.886 2643.85 52.886L2643.92 52.378C2644.72 52.378 2645.45 52.5877 2646.1 53.0069C2646.74 53.4262 2647.26 53.9905 2647.64 54.7C2648.03 55.4095 2648.22 56.1997 2648.22 57.0704C2648.22 58.0057 2647.98 58.8522 2647.5 59.6101C2647.01 60.368 2646.32 60.9646 2645.42 61.4C2644.53 61.8354 2643.48 62.053 2642.25 62.053ZM2642.25 60.3115C2643.43 60.3115 2644.35 59.9971 2645.03 59.3682C2645.72 58.7394 2646.07 57.9089 2646.07 56.8769C2646.07 55.8449 2645.73 55.0306 2645.06 54.434C2644.38 53.8374 2643.44 53.539 2642.25 53.539C2641.06 53.539 2640.12 53.8374 2639.44 54.434C2638.77 55.0306 2638.43 55.8449 2638.43 56.8769C2638.43 57.9089 2638.77 58.7394 2639.44 59.3682C2640.14 59.9971 2641.07 60.3115 2642.25 60.3115ZM2642.25 51.8459C2643.31 51.8459 2644.14 51.5799 2644.74 51.0477C2645.35 50.5156 2645.66 49.8061 2645.66 48.9192C2645.66 48.0001 2645.35 47.2664 2644.72 46.7182C2644.09 46.1699 2643.27 45.8958 2642.25 45.8958C2641.22 45.8958 2640.39 46.1699 2639.76 46.7182C2639.15 47.2664 2638.84 48.0001 2638.84 48.9192C2638.84 49.8061 2639.15 50.5156 2639.76 51.0477C2640.37 51.5799 2641.2 51.8459 2642.25 51.8459Z" fill="#50C1DB"/>
<path d="M2622.7 61.8112V60.118C2624.44 58.6829 2625.89 57.4252 2627.05 56.3448C2628.23 55.2644 2629.16 54.305 2629.86 53.4665C2630.56 52.628 2631.06 51.862 2631.36 51.1687C2631.66 50.4592 2631.81 49.7658 2631.81 49.0885C2631.81 48.0888 2631.52 47.3067 2630.92 46.7424C2630.32 46.178 2629.5 45.8958 2628.45 45.8958C2627.37 45.8958 2626.5 46.2022 2625.84 46.8149C2625.18 47.4277 2624.78 48.3065 2624.63 49.4514H2622.55C2622.71 47.8711 2623.32 46.5972 2624.36 45.6297C2625.43 44.6461 2626.84 44.1543 2628.6 44.1543C2630.23 44.1543 2631.52 44.5897 2632.49 45.4604C2633.46 46.3312 2633.94 47.5244 2633.94 49.0402C2633.94 49.8625 2633.78 50.6849 2633.46 51.5073C2633.15 52.3297 2632.64 53.1924 2631.91 54.0954C2631.2 54.9984 2630.26 55.9981 2629.08 57.0946C2627.92 58.175 2626.48 59.4005 2624.75 60.7711L2624.29 60.0697H2634.23V61.8112H2622.7Z" fill="#50C1DB"/>
<path d="M2843.31 62.053C2841.94 62.053 2840.74 61.6741 2839.7 60.9162C2838.69 60.1422 2837.89 59.078 2837.31 57.7235C2836.75 56.3529 2836.46 54.7887 2836.46 53.0311C2836.46 51.2735 2836.75 49.7335 2837.31 48.4113C2837.87 47.0729 2838.67 46.0329 2839.7 45.2911C2840.74 44.5332 2841.94 44.1543 2843.31 44.1543C2844.68 44.1543 2845.87 44.5332 2846.89 45.2911C2847.92 46.0329 2848.72 47.0729 2849.28 48.4113C2849.86 49.7335 2850.15 51.2735 2850.15 53.0311C2850.15 54.8049 2849.86 56.369 2849.28 57.7235C2848.72 59.078 2847.92 60.1422 2846.89 60.9162C2845.87 61.6741 2844.68 62.053 2843.31 62.053ZM2843.31 60.3115C2844.29 60.3115 2845.13 60.0213 2845.82 59.4408C2846.52 58.8442 2847.05 58.0057 2847.42 56.9253C2847.79 55.8288 2847.98 54.5227 2847.98 53.0069C2847.98 51.5073 2847.79 50.2254 2847.42 49.1611C2847.07 48.0969 2846.54 47.2906 2845.85 46.7424C2845.15 46.178 2844.31 45.8958 2843.31 45.8958C2842.31 45.8958 2841.46 46.178 2840.77 46.7424C2840.07 47.3067 2839.54 48.121 2839.17 49.1853C2838.82 50.2334 2838.64 51.5073 2838.64 53.0069C2838.64 54.5227 2838.83 55.8288 2839.2 56.9253C2839.57 58.0218 2840.1 58.8603 2840.79 59.4408C2841.49 60.0213 2842.32 60.3115 2843.31 60.3115Z" fill="#50C1DB"/>
<path d="M2826.84 62.053C2825.47 62.053 2824.27 61.6741 2823.24 60.9162C2822.22 60.1422 2821.43 59.078 2820.84 57.7235C2820.28 56.3529 2820 54.7887 2820 53.0311C2820 51.2735 2820.28 49.7335 2820.84 48.4113C2821.41 47.0729 2822.21 46.0329 2823.24 45.2911C2824.27 44.5332 2825.47 44.1543 2826.84 44.1543C2828.21 44.1543 2829.41 44.5332 2830.42 45.2911C2831.45 46.0329 2832.25 47.0729 2832.82 48.4113C2833.4 49.7335 2833.69 51.2735 2833.69 53.0311C2833.69 54.8049 2833.4 56.369 2832.82 57.7235C2832.25 59.078 2831.45 60.1422 2830.42 60.9162C2829.41 61.6741 2828.21 62.053 2826.84 62.053ZM2826.84 60.3115C2827.83 60.3115 2828.67 60.0213 2829.36 59.4408C2830.05 58.8442 2830.58 58.0057 2830.95 56.9253C2831.33 55.8288 2831.51 54.5227 2831.51 53.0069C2831.51 51.5073 2831.33 50.2254 2830.95 49.1611C2830.6 48.0969 2830.08 47.2906 2829.38 46.7424C2828.69 46.178 2827.84 45.8958 2826.84 45.8958C2825.84 45.8958 2825 46.178 2824.3 46.7424C2823.61 47.3067 2823.08 48.121 2822.71 49.1853C2822.35 50.2334 2822.17 51.5073 2822.17 53.0069C2822.17 54.5227 2822.36 55.8288 2822.73 56.9253C2823.1 58.0218 2823.63 58.8603 2824.33 59.4408C2825.02 60.0213 2825.86 60.3115 2826.84 60.3115Z" fill="#50C1DB"/>
<path d="M2811.63 62.053C2810.47 62.053 2809.45 61.8434 2808.56 61.4242C2807.69 60.9888 2806.98 60.3599 2806.43 59.5375C2805.9 58.7152 2805.57 57.7235 2805.44 56.5625H2807.52C2807.7 57.7719 2808.14 58.699 2808.85 59.344C2809.56 59.989 2810.5 60.3115 2811.66 60.3115C2812.75 60.3115 2813.62 60.0213 2814.25 59.4408C2814.87 58.8603 2815.19 58.0702 2815.19 57.0704C2815.19 56.0223 2814.88 55.1757 2814.27 54.5307C2813.66 53.8696 2812.83 53.539 2811.8 53.539H2809.63V51.8459H2811.73C2812.67 51.8459 2813.41 51.5799 2813.96 51.0477C2814.52 50.4995 2814.8 49.7739 2814.8 48.8709C2814.8 47.9195 2814.5 47.1858 2813.91 46.6698C2813.33 46.1538 2812.54 45.8958 2811.54 45.8958C2810.55 45.8958 2809.71 46.186 2809.02 46.7665C2808.33 47.3309 2807.92 48.1452 2807.79 49.2095H2805.68C2805.78 48.1775 2806.09 47.2906 2806.6 46.5489C2807.12 45.791 2807.8 45.2024 2808.66 44.7832C2809.53 44.3639 2810.5 44.1543 2811.59 44.1543C2812.63 44.1543 2813.56 44.3397 2814.37 44.7106C2815.17 45.0815 2815.8 45.6136 2816.25 46.307C2816.7 46.9842 2816.93 47.7824 2816.93 48.7015C2816.93 49.5239 2816.75 50.2495 2816.37 50.8784C2816 51.5073 2815.5 51.9991 2814.85 52.3539C2814.22 52.7086 2813.5 52.886 2812.67 52.886L2812.53 52.378C2813.51 52.378 2814.36 52.5877 2815.07 53.0069C2815.79 53.41 2816.35 53.9664 2816.74 54.6759C2817.14 55.3854 2817.34 56.2077 2817.34 57.143C2817.34 58.1105 2817.1 58.9651 2816.62 59.7069C2816.13 60.4486 2815.46 61.0291 2814.61 61.4484C2813.75 61.8515 2812.76 62.053 2811.63 62.053Z" fill="#50C1DB"/>
<path d="M13 38L7 38L7 -2.62273e-07L13 0L13 38Z" fill="#50C1DB"/>
<path d="M200 38L195 38L195 -2.18561e-07L200 0L200 38Z" fill="#50C1DB"/>
<path d="M388 38L383 38L383 -2.18561e-07L388 0L388 38Z" fill="#50C1DB"/>
<path d="M576 38L571 38L571 -2.18561e-07L576 0L576 38Z" fill="#50C1DB"/>
<path d="M764 38L760 38L760 -1.74848e-07L764 0L764 38Z" fill="#50C1DB"/>
<path d="M952 38L948 38L948 -1.74848e-07L952 0L952 38Z" fill="#50C1DB"/>
<path d="M1141 38L1136 38L1136 -2.18561e-07L1141 0L1141 38Z" fill="#50C1DB"/>
<path d="M1329 38L1324 38L1324 -2.18561e-07L1329 0L1329 38Z" fill="#50C1DB"/>
<path d="M1517 38L1511 38L1511 -2.62273e-07L1517 0L1517 38Z" fill="#50C1DB"/>
<path d="M1705 38L1699 38L1699 -2.62273e-07L1705 0L1705 38Z" fill="#50C1DB"/>
<path d="M1893 38L1889 38L1889 -1.74848e-07L1893 0L1893 38Z" fill="#50C1DB"/>
<path d="M2081 38L2077 38L2077 -1.74848e-07L2081 0L2081 38Z" fill="#50C1DB"/>
<path d="M2270 38L2264 38L2264 -2.62273e-07L2270 0L2270 38Z" fill="#50C1DB"/>
<path d="M2458 38L2452 38L2452 -2.62273e-07L2458 0L2458 38Z" fill="#50C1DB"/>
<path d="M2646 38L2640 38L2640 -2.62273e-07L2646 0L2646 38Z" fill="#50C1DB"/>
<path d="M2834 38L2828 38L2828 -2.62273e-07L2834 0L2834 38Z" fill="#50C1DB"/>
<path d="M50 25H44V0L50 0V25Z" fill="#50C1DB"/>
<path d="M238 25H232V0L238 0V25Z" fill="#50C1DB"/>
<path d="M426 25H420V0L426 0V25Z" fill="#50C1DB"/>
<path d="M614 25H608V0L614 0V25Z" fill="#50C1DB"/>
<path d="M802 25H797V0L802 0V25Z" fill="#50C1DB"/>
<path d="M991 25H985V0L991 0V25Z" fill="#50C1DB"/>
<path d="M1179 25H1173V0L1179 0V25Z" fill="#50C1DB"/>
<path d="M1367 25H1361V0L1367 0V25Z" fill="#50C1DB"/>
<path d="M1555 25H1549V0L1555 0V25Z" fill="#50C1DB"/>
<path d="M1743 25H1737V0L1743 0V25Z" fill="#50C1DB"/>
<path d="M1931 25H1926V0L1931 0V25Z" fill="#50C1DB"/>
<path d="M2119 25H2114V0L2119 0V25Z" fill="#50C1DB"/>
<path d="M2308 25H2302V0L2308 0V25Z" fill="#50C1DB"/>
<path d="M2496 25H2490V0L2496 0V25Z" fill="#50C1DB"/>
<path d="M2684 25H2678V0L2684 0V25Z" fill="#50C1DB"/>
<path d="M2872 25H2866V0L2872 0V25Z" fill="#50C1DB"/>
<path d="M88 25H82V0L88 0V25Z" fill="#50C1DB"/>
<path d="M276 25H270V0L276 0V25Z" fill="#50C1DB"/>
<path d="M464 25H458V0L464 0V25Z" fill="#50C1DB"/>
<path d="M651 25H647V0L651 0V25Z" fill="#50C1DB"/>
<path d="M839 25H835V0L839 0V25Z" fill="#50C1DB"/>
<path d="M1029 25H1023V0L1029 0V25Z" fill="#50C1DB"/>
<path d="M1217 25H1211V0L1217 0V25Z" fill="#50C1DB"/>
<path d="M1404 25H1399V0L1404 0V25Z" fill="#50C1DB"/>
<path d="M1592 25H1587V0L1592 0V25Z" fill="#50C1DB"/>
<path d="M1780 25H1775V0L1780 0V25Z" fill="#50C1DB"/>
<path d="M1968 25H1964V0L1968 0V25Z" fill="#50C1DB"/>
<path d="M2156 25H2152V0L2156 0V25Z" fill="#50C1DB"/>
<path d="M2345 25H2340V0L2345 0V25Z" fill="#50C1DB"/>
<path d="M2533 25H2528V0L2533 0V25Z" fill="#50C1DB"/>
<path d="M2721 25H2715V0L2721 0V25Z" fill="#50C1DB"/>
<path d="M2909 25H2903V0L2909 0V25Z" fill="#50C1DB"/>
<path d="M125 25H120V0L125 0V25Z" fill="#50C1DB"/>
<path d="M313 25H307V0L313 0V25Z" fill="#50C1DB"/>
<path d="M501 25H495V0L501 0V25Z" fill="#50C1DB"/>
<path d="M689 25H685V0L689 0V25Z" fill="#50C1DB"/>
<path d="M877 25H873V0L877 0V25Z" fill="#50C1DB"/>
<path d="M1066 25H1060V0L1066 0V25Z" fill="#50C1DB"/>
<path d="M1254 25H1248V0L1254 0V25Z" fill="#50C1DB"/>
<path d="M1442 25H1436V0L1442 0V25Z" fill="#50C1DB"/>
<path d="M1630 25H1624V0L1630 0V25Z" fill="#50C1DB"/>
<path d="M1818 25H1812V0L1818 0V25Z" fill="#50C1DB"/>
<path d="M2006 25H2001V0L2006 0V25Z" fill="#50C1DB"/>
<path d="M2195 25H2189V0L2195 0V25Z" fill="#50C1DB"/>
<path d="M2383 25H2377V0L2383 0V25Z" fill="#50C1DB"/>
<path d="M2571 25H2565V0L2571 0V25Z" fill="#50C1DB"/>
<path d="M2759 25H2753V0L2759 0V25Z" fill="#50C1DB"/>
<path d="M2947 25H2941V0L2947 0V25Z" fill="#50C1DB"/>
<path d="M163 25H157V0L163 0V25Z" fill="#50C1DB"/>
<path d="M351 25H345V0L351 0V25Z" fill="#50C1DB"/>
<path d="M539 25H533V0L539 0V25Z" fill="#50C1DB"/>
<path d="M727 25H722V0L727 0V25Z" fill="#50C1DB"/>
<path d="M915 25H910V0L915 0V25Z" fill="#50C1DB"/>
<path d="M1104 25H1098V0L1104 0V25Z" fill="#50C1DB"/>
<path d="M1292 25H1286V0L1292 0V25Z" fill="#50C1DB"/>
<path d="M1480 25H1474V0L1480 0V25Z" fill="#50C1DB"/>
<path d="M1668 25H1662V0L1668 0V25Z" fill="#50C1DB"/>
<path d="M1855 25H1851V0L1855 0V25Z" fill="#50C1DB"/>
<path d="M2043 25H2039V0L2043 0V25Z" fill="#50C1DB"/>
<path d="M2233 25H2227V0L2233 0V25Z" fill="#50C1DB"/>
<path d="M2421 25H2415V0L2421 0V25Z" fill="#50C1DB"/>
<path d="M2608 25H2603V0L2608 0V25Z" fill="#50C1DB"/>
<path d="M2796 25H2791V0L2796 0V25Z" fill="#50C1DB"/>
<path d="M2984 25H2979V0L2984 0V25Z" fill="#50C1DB"/>
<path d="M200 38H195V0L200 0V38Z" fill="#50C1DB"/>
<path d="M388 38H383V0L388 0V38Z" fill="#50C1DB"/>
<path d="M576 38H571V0L576 0V38Z" fill="#50C1DB"/>
<path d="M764 38H760V0L764 0V38Z" fill="#50C1DB"/>
<path d="M952 38H948V0L952 0V38Z" fill="#50C1DB"/>
<path d="M1141 38H1136V0L1141 0V38Z" fill="#50C1DB"/>
<path d="M1329 38H1324V0L1329 0V38Z" fill="#50C1DB"/>
<path d="M1517 38H1511V0L1517 0V38Z" fill="#50C1DB"/>
<path d="M1705 38H1699V0L1705 0V38Z" fill="#50C1DB"/>
<path d="M1893 38H1889V0L1893 0V38Z" fill="#50C1DB"/>
<path d="M2081 38H2077V0L2081 0V38Z" fill="#50C1DB"/>
<path d="M2270 38H2264V0L2270 0V38Z" fill="#50C1DB"/>
<path d="M2458 38H2452V0L2458 0V38Z" fill="#50C1DB"/>
<path d="M2646 38H2640V0L2646 0V38Z" fill="#50C1DB"/>
<path d="M2834 38H2828V0L2834 0V38Z" fill="#50C1DB"/>
<path d="M3022 38H3016V0L3022 0V38Z" fill="#50C1DB"/>
</svg>
