<svg width="16" height="16" viewBox="0 0 16 16" fill="none" xmlns="http://www.w3.org/2000/svg">
<g id="Frame">
<g id="Group">
<path id="Vector" d="M13.0034 2.10335H11.7234V3.33572C11.7234 3.58219 11.5101 3.74651 11.2968 3.74651C11.0834 3.74651 10.8701 3.58219 10.8701 3.33572V2.10335H4.04345V3.33572C4.04345 3.58219 3.83011 3.74651 3.61678 3.74651C3.40345 3.74651 3.19011 3.58219 3.19011 3.33572V2.10335H1.91011C1.27011 2.10335 0.800781 2.63738 0.800781 3.33572V4.81457H14.4541V3.33572C14.4541 2.63738 13.6861 2.10335 13.0034 2.10335ZM0.800781 5.67723V13.1947C0.800781 13.9341 1.27011 14.4271 1.95278 14.4271H13.0461C13.7288 14.4271 14.4968 13.893 14.4968 13.1947V5.67723H0.800781ZM4.59811 12.5785H3.57411C3.40345 12.5785 3.23278 12.4553 3.23278 12.2499V11.2229C3.23278 11.0586 3.36078 10.8943 3.57411 10.8943H4.64078C4.81145 10.8943 4.98212 11.0175 4.98212 11.2229V12.2499C4.93945 12.4553 4.81145 12.5785 4.59811 12.5785ZM4.59811 8.88139H3.57411C3.40345 8.88139 3.23278 8.75816 3.23278 8.55276V7.52578C3.23278 7.36147 3.36078 7.19715 3.57411 7.19715H4.64078C4.81145 7.19715 4.98212 7.32039 4.98212 7.52578V8.55276C4.93945 8.75816 4.81145 8.88139 4.59811 8.88139ZM8.01145 12.5785H6.94478C6.77412 12.5785 6.60345 12.4553 6.60345 12.2499V11.2229C6.60345 11.0586 6.73145 10.8943 6.94478 10.8943H8.01145C8.18212 10.8943 8.35278 11.0175 8.35278 11.2229V12.2499C8.35278 12.4553 8.22478 12.5785 8.01145 12.5785ZM8.01145 8.88139H6.94478C6.77412 8.88139 6.60345 8.75816 6.60345 8.55276V7.52578C6.60345 7.36147 6.73145 7.19715 6.94478 7.19715H8.01145C8.18212 7.19715 8.35278 7.32039 8.35278 7.52578V8.55276C8.35278 8.75816 8.22478 8.88139 8.01145 8.88139ZM11.4248 12.5785H10.3581C10.1874 12.5785 10.0168 12.4553 10.0168 12.2499V11.2229C10.0168 11.0586 10.1448 10.8943 10.3581 10.8943H11.4248C11.5954 10.8943 11.7661 11.0175 11.7661 11.2229V12.2499C11.7661 12.4553 11.6381 12.5785 11.4248 12.5785ZM11.4248 8.88139H10.3581C10.1874 8.88139 10.0168 8.75816 10.0168 8.55276V7.52578C10.0168 7.36147 10.1448 7.19715 10.3581 7.19715H11.4248C11.5954 7.19715 11.7661 7.32039 11.7661 7.52578V8.55276C11.7661 8.75816 11.6381 8.88139 11.4248 8.88139Z" fill="#094067"/>
</g>
</g>
</svg>
