<svg width="21" height="20" viewBox="0 0 21 20" fill="none" xmlns="http://www.w3.org/2000/svg">
<path d="M9.71735 13.5639C10.4175 14.2641 11.5527 14.2641 12.2529 13.5639L17.5194 8.29745C18.2196 7.59726 19.3548 7.59726 20.055 8.29745L20.4749 8.71736C21.175 9.41754 21.175 10.5527 20.4749 11.2529L12.2529 19.4749C11.5527 20.175 10.4175 20.175 9.71735 19.4749L1.49541 11.2529C0.795238 10.5528 0.795238 9.41754 1.49541 8.71736L1.9153 8.29747C2.61548 7.59729 3.75069 7.59729 4.45087 8.29747L9.71735 13.5639Z" fill="#094067"/>
<path d="M1.49541 3.48059C0.795238 2.78041 0.795238 1.6452 1.49541 0.945021L1.9153 0.525131C2.61548 -0.175047 3.7507 -0.175045 4.45087 0.525133L9.71735 5.79161C10.4175 6.49179 11.5527 6.49179 12.2529 5.79161L17.5194 0.525133C18.2196 -0.175045 19.3548 -0.175045 20.055 0.525133L20.4749 0.945023C21.175 1.6452 21.175 2.78041 20.4749 3.48059L12.2529 11.7025C11.5527 12.4027 10.4175 12.4027 9.71735 11.7025L1.49541 3.48059Z" fill="#094067"/>
</svg>
