<svg width="16" height="17" viewBox="0 0 16 17" fill="none" xmlns="http://www.w3.org/2000/svg">
<g id="Frame">
<g id="Group">
<path id="Vector" d="M8.00039 1.30894C4.91292 1.30894 2.40039 3.74476 2.40039 6.73951C2.40039 10.9947 7.47399 15.3883 7.6899 15.5728C7.77524 15.6464 7.88573 15.6871 8.00027 15.6872C8.11481 15.6873 8.22538 15.6468 8.31088 15.5734C8.52679 15.3883 13.6004 10.9947 13.6004 6.73951C13.6004 3.74476 11.0879 1.30894 8.00039 1.30894ZM8.00039 9.69592C6.28492 9.69592 4.88928 8.35221 4.88928 6.70057C4.88928 5.04894 6.28492 3.70522 8.00039 3.70522C9.71586 3.70522 11.1115 5.04894 11.1115 6.70057C11.1115 8.35221 9.71586 9.69592 8.00039 9.69592Z" fill="#094067"/>
</g>
</g>
</svg>
