<svg width="151" height="151" viewBox="0 0 151 151" fill="none" xmlns="http://www.w3.org/2000/svg">
<path d="M84.6199 49.0851C79.3685 43.8337 70.8544 43.8337 65.6031 49.0851L26.1046 88.5838C20.8532 93.8352 12.339 93.8352 7.08771 88.5838L3.93843 85.4345C-1.31284 80.1831 -1.31281 71.6691 3.9385 66.4178L65.6031 4.7532C70.8544 -0.498136 79.3685 -0.498137 84.6199 4.7532L146.284 66.4177C151.536 71.6691 151.536 80.1832 146.284 85.4345L143.135 88.5837C137.884 93.835 129.37 93.835 124.118 88.5837L84.6199 49.0851Z" fill="#0073FF"/>
<path d="M146.284 124.71C151.536 129.962 151.536 138.476 146.284 143.727L143.135 146.876C137.884 152.128 129.37 152.128 124.118 146.876L84.6199 107.378C79.3685 102.126 70.8544 102.126 65.6031 107.378L26.1045 146.876C20.8532 152.128 12.3391 152.128 7.08773 146.876L3.93856 143.727C-1.31277 138.476 -1.31276 129.962 3.93857 124.71L65.6031 63.0457C70.8544 57.7944 79.3685 57.7944 84.6199 63.0457L146.284 124.71Z" fill="#0073FF"/>
</svg>
