<svg width="14" height="20" viewBox="0 0 14 20" fill="none" xmlns="http://www.w3.org/2000/svg">
<path d="M7 0.666992C3.14067 0.666992 0 3.82944 0 7.71755C0 13.2421 6.342 18.9463 6.61189 19.1859C6.71857 19.2814 6.85668 19.3342 6.99985 19.3344C7.14303 19.3345 7.28124 19.2819 7.38811 19.1867C7.658 18.9463 14 13.2421 14 7.71755C14 3.82944 10.8593 0.666992 7 0.666992ZM7 11.5559C4.85567 11.5559 3.11111 9.81133 3.11111 7.66699C3.11111 5.52266 4.85567 3.7781 7 3.7781C9.14433 3.7781 10.8889 5.52266 10.8889 7.66699C10.8889 9.81133 9.14433 11.5559 7 11.5559Z" fill="#00B3FF"/>
</svg>
