<svg xmlns="http://www.w3.org/2000/svg" width="56.41" height="56.868" viewBox="0 0 56.41 56.868"><defs><style>.a{fill:#fff;}</style></defs><g transform="translate(-17.595 6.107)"><g transform="translate(17.595 -6.107)"><g transform="translate(0 0)"><g transform="translate(2.063)"><path class="a" d="M48.648,50.132a4.164,4.164,0,0,1-2.454-.812,4.113,4.113,0,0,1-1.517-4.673l4.264-13.086L37.785,23.507a4.176,4.176,0,0,1,2.444-7.562H53.981L58.176,2.9A4.113,4.113,0,0,1,62.147,0h.005a4.113,4.113,0,0,1,3.972,2.888l4.233,13.057h1.491a1.111,1.111,0,1,1,0,2.221h-2.3a1.111,1.111,0,0,1-1.057-.768L64.011,3.573a1.9,1.9,0,0,0-1.859-1.352h0a1.905,1.905,0,0,0-1.858,1.356L55.848,17.4a1.111,1.111,0,0,1-1.057.771H40.23a1.955,1.955,0,0,0-1.144,3.539L50.9,30.234a1.111,1.111,0,0,1,.406,1.245L46.789,45.336A1.955,1.955,0,0,0,49.8,47.521l11.779-8.582a1.11,1.11,0,0,1,1.307,0l11.737,8.531a1.955,1.955,0,0,0,3.006-2.19L73.105,31.492a1.111,1.111,0,0,1,.4-1.245L85.291,21.7a1.954,1.954,0,0,0-1.147-3.537h-2.3a1.111,1.111,0,1,1,0-2.221h2.3A4.176,4.176,0,0,1,86.595,23.5L75.468,31.569l4.271,13.017a4.176,4.176,0,0,1-6.423,4.68L62.232,41.21,51.107,49.316a4.163,4.163,0,0,1-2.459.816Z" transform="translate(-36.045 0)"/></g><g transform="translate(27.094 45.664)"><path class="a" d="M430.65,729.064a1.111,1.111,0,0,1-1.111-1.111V718.97a1.111,1.111,0,0,1,2.221,0v8.983A1.111,1.111,0,0,1,430.65,729.064Z" transform="translate(-429.539 -717.859)"/></g><g transform="translate(45.644 32.186)"><path class="a" d="M730.81,510.98a1.112,1.112,0,0,1-.343-.055l-8.543-2.776a1.111,1.111,0,0,1,.687-2.113l8.543,2.776a1.111,1.111,0,0,1-.343,2.167Z" transform="translate(-721.155 -505.983)"/></g><g transform="translate(38.559 3.112)"><path class="a" d="M610.878,58.4a1.111,1.111,0,0,1-.9-1.764l5.28-7.267a1.111,1.111,0,1,1,1.8,1.306l-5.28,7.267a1.109,1.109,0,0,1-.9.458Z" transform="translate(-609.768 -48.915)"/></g><g transform="translate(10.349 3.112)"><path class="a" d="M172.693,58.405a1.109,1.109,0,0,1-.9-.458l-5.28-7.267a1.111,1.111,0,1,1,1.8-1.306l5.28,7.267a1.111,1.111,0,0,1-.9,1.764Z" transform="translate(-166.301 -48.916)"/></g><g transform="translate(0 32.186)"><path class="a" d="M4.718,510.978a1.111,1.111,0,0,1-.343-2.167l8.543-2.776a1.111,1.111,0,0,1,.687,2.113l-8.543,2.776a1.112,1.112,0,0,1-.344.055Z" transform="translate(-3.608 -505.98)"/></g></g><g transform="translate(41.754 15.945)"><path class="a" d="M661.117,252.891a1.111,1.111,0,1,1,.785-.325A1.119,1.119,0,0,1,661.117,252.891Z" transform="translate(-660.006 -250.669)"/></g></g></g></svg>