<svg width="22" height="22" viewBox="0 0 22 22" fill="none" xmlns="http://www.w3.org/2000/svg">
<path d="M21.3125 4.8125V6.1875H0.6875V4.8125C0.687338 4.02005 0.960976 3.25188 1.4621 2.638C1.96323 2.02412 2.66106 1.60224 3.4375 1.44375V2.0625C3.4375 2.44062 3.74688 2.75 4.125 2.75C4.50312 2.75 4.8125 2.44062 4.8125 2.0625V1.375H6.875V2.0625C6.875 2.44062 7.18437 2.75 7.5625 2.75C7.94063 2.75 8.25 2.44062 8.25 2.0625V1.375H10.3125V2.0625C10.3125 2.44062 10.6219 2.75 11 2.75C11.3781 2.75 11.6875 2.44062 11.6875 2.0625V1.375H13.75V2.0625C13.75 2.44062 14.0594 2.75 14.4375 2.75C14.8156 2.75 15.125 2.44062 15.125 2.0625V1.375H17.1875V2.0625C17.1875 2.44062 17.4969 2.75 17.875 2.75C18.2531 2.75 18.5625 2.44062 18.5625 2.0625V1.44375C19.3389 1.60224 20.0368 2.02412 20.5379 2.638C21.039 3.25188 21.3127 4.02005 21.3125 4.8125ZM11 0.6875C10.6219 0.6875 10.3125 0.996875 10.3125 1.375H11.6875C11.6875 0.996875 11.3781 0.6875 11 0.6875ZM4.125 0.6875C3.74688 0.6875 3.4375 0.996875 3.4375 1.375V1.44375C3.6575 1.39562 3.89125 1.375 4.125 1.375H4.8125C4.8125 0.996875 4.50312 0.6875 4.125 0.6875ZM7.5625 0.6875C7.18437 0.6875 6.875 0.996875 6.875 1.375H8.25C8.25 0.996875 7.94063 0.6875 7.5625 0.6875ZM14.4375 0.6875C14.0594 0.6875 13.75 0.996875 13.75 1.375H15.125C15.125 0.996875 14.8156 0.6875 14.4375 0.6875ZM17.875 0.6875C17.4969 0.6875 17.1875 0.996875 17.1875 1.375H17.875C18.1087 1.375 18.3425 1.39562 18.5625 1.44375V1.375C18.5625 0.996875 18.2531 0.6875 17.875 0.6875ZM21.3125 16.5C21.3125 19.1606 19.1606 21.3125 16.5 21.3125C13.8394 21.3125 11.6875 19.1606 11.6875 16.5C11.6875 13.8394 13.8394 11.6875 16.5 11.6875C19.1606 11.6875 21.3125 13.8394 21.3125 16.5ZM18.5625 16.5C18.5625 16.1219 18.2531 15.8125 17.875 15.8125H17.1875V14.4375C17.1875 14.0594 16.8781 13.75 16.5 13.75C16.1219 13.75 15.8125 14.0594 15.8125 14.4375V16.5C15.8125 16.8781 16.1219 17.1875 16.5 17.1875H17.875C18.2531 17.1875 18.5625 16.8781 18.5625 16.5ZM21.3125 7.5625V12.6225C20.735 11.9012 20.0025 11.319 19.1695 10.9191C18.3364 10.5192 17.4241 10.3119 16.5 10.3125C13.09 10.3125 10.3125 13.09 10.3125 16.5C10.3119 17.4241 10.5192 18.3364 10.9191 19.1695C11.319 20.0025 11.9012 20.735 12.6225 21.3125H4.125C2.2275 21.3125 0.6875 19.7725 0.6875 17.875V7.5625H21.3125ZM5.5 17.875C5.5 17.4969 5.19063 17.1875 4.8125 17.1875C4.43438 17.1875 4.125 17.4969 4.125 17.875C4.125 18.2531 4.43438 18.5625 4.8125 18.5625C5.19063 18.5625 5.5 18.2531 5.5 17.875ZM5.5 14.4375C5.5 14.0594 5.19063 13.75 4.8125 13.75C4.43438 13.75 4.125 14.0594 4.125 14.4375C4.125 14.8156 4.43438 15.125 4.8125 15.125C5.19063 15.125 5.5 14.8156 5.5 14.4375ZM5.5 11C5.5 10.6219 5.19063 10.3125 4.8125 10.3125C4.43438 10.3125 4.125 10.6219 4.125 11C4.125 11.3781 4.43438 11.6875 4.8125 11.6875C5.19063 11.6875 5.5 11.3781 5.5 11ZM9.625 17.875C9.625 17.4969 9.31563 17.1875 8.9375 17.1875C8.55937 17.1875 8.25 17.4969 8.25 17.875C8.25 18.2531 8.55937 18.5625 8.9375 18.5625C9.31563 18.5625 9.625 18.2531 9.625 17.875ZM9.625 14.4375C9.625 14.0594 9.31563 13.75 8.9375 13.75C8.55937 13.75 8.25 14.0594 8.25 14.4375C8.25 14.8156 8.55937 15.125 8.9375 15.125C9.31563 15.125 9.625 14.8156 9.625 14.4375ZM9.625 11C9.625 10.6219 9.31563 10.3125 8.9375 10.3125C8.55937 10.3125 8.25 10.6219 8.25 11C8.25 11.3781 8.55937 11.6875 8.9375 11.6875C9.31563 11.6875 9.625 11.3781 9.625 11Z" fill="#0DB5DD"/>
</svg>
