<svg width="22" height="22" viewBox="0 0 22 22" fill="none" xmlns="http://www.w3.org/2000/svg">
<g clip-path="url(#clip0_116_38)">
<path d="M11.0003 0.914062C9.00604 0.914062 7.05652 1.50544 5.39833 2.61342C3.74013 3.72138 2.44773 5.29618 1.68455 7.13867C0.921361 8.98117 0.721678 11.0086 1.11074 12.9646C1.49982 14.9205 2.46016 16.7172 3.87034 18.1274C5.28052 19.5376 7.0772 20.4979 9.03317 20.887C10.9891 21.276 13.0166 21.0763 14.859 20.3132C16.7015 19.55 18.2763 18.2576 19.3843 16.5993C20.4923 14.9412 21.0836 12.9917 21.0836 10.9974C21.0805 8.32409 20.0172 5.76119 18.1268 3.87088C16.2365 1.98057 13.6736 0.917217 11.0003 0.914062ZM14.3984 14.3955C14.2265 14.5674 13.9935 14.6639 13.7504 14.6639C13.5073 14.6639 13.2741 14.5674 13.1022 14.3955L10.3522 11.6455C10.1803 11.4736 10.0837 11.2405 10.0837 10.9974V5.4974C10.0837 5.25428 10.1802 5.02112 10.3521 4.84921C10.5241 4.67731 10.7572 4.58073 11.0003 4.58073C11.2435 4.58073 11.4766 4.67731 11.6485 4.84921C11.8204 5.02112 11.917 5.25428 11.917 5.4974V10.6179L14.3984 13.0993C14.5703 13.2712 14.6668 13.5043 14.6668 13.7474C14.6668 13.9904 14.5703 14.2236 14.3984 14.3955Z" fill="#4CB9D3"/>
</g>
<defs>
<clipPath id="clip0_116_38">
<rect width="22" height="22" fill="white"/>
</clipPath>
</defs>
</svg>
