<svg width="60" height="60" viewBox="0 0 60 60" fill="none" xmlns="http://www.w3.org/2000/svg">
<g id="Frame">
<g id="Group">
<path id="Vector" d="M3.375 23.0963V54.6339C3.37844 57.5962 5.77894 59.9966 8.74107 60H51.262C54.2246 59.9972 56.6259 57.5966 56.6293 54.6339V23.0963H3.375ZM19.9604 52.7862C19.9604 53.8586 19.091 54.7281 18.0185 54.7281H11.8604C10.788 54.7281 9.91852 53.8587 9.91852 52.7862V50.3938C9.91852 49.3213 10.7879 48.4519 11.8604 48.4519H18.0185C19.0909 48.4519 19.9604 49.3213 19.9604 50.3938V52.7862ZM19.9604 42.7443C19.9604 43.8168 19.091 44.6862 18.0185 44.6862H11.8604C10.788 44.6862 9.91852 43.8168 9.91852 42.7443V40.3519C9.91852 39.2795 10.7879 38.41 11.8604 38.41H18.0185C19.0909 38.41 19.9604 39.2794 19.9604 40.3519V42.7443ZM19.9604 32.7025C19.9604 33.7751 19.091 34.6444 18.0185 34.6444H11.8604C10.788 34.6444 9.91852 33.7751 9.91852 32.7025V30.3101C9.91852 29.2377 10.7879 28.3682 11.8604 28.3682H18.0185C19.0909 28.3682 19.9604 29.2376 19.9604 30.3101V32.7025ZM35.0231 52.7862C35.0231 53.8586 34.1537 54.7281 33.0812 54.7281H26.9231C25.8507 54.7281 24.9812 53.8587 24.9812 52.7862V50.3938C24.9812 49.3213 25.8506 48.4519 26.9231 48.4519H33.0812C34.1537 48.4519 35.0231 49.3213 35.0231 50.3938V52.7862ZM35.0231 42.7443C35.0231 43.8168 34.1537 44.6862 33.0812 44.6862H26.9231C25.8507 44.6862 24.9812 43.8168 24.9812 42.7443V40.3519C24.9812 39.2795 25.8506 38.41 26.9231 38.41H33.0812C34.1537 38.41 35.0231 39.2794 35.0231 40.3519V42.7443ZM35.0231 32.7025C35.0231 33.7751 34.1537 34.6444 33.0812 34.6444H26.9231C25.8507 34.6444 24.9812 33.7751 24.9812 32.7025V30.3101C24.9812 29.2377 25.8506 28.3682 26.9231 28.3682H33.0812C34.1537 28.3682 35.0231 29.2376 35.0231 30.3101V32.7025ZM50.0859 52.7862C50.0859 53.8586 49.2165 54.7281 48.144 54.7281H41.9859C40.9134 54.7281 40.044 53.8587 40.044 52.7862V50.3938C40.044 49.3213 40.9134 48.4519 41.9859 48.4519H48.144C49.2165 48.4519 50.0859 49.3213 50.0859 50.3938V52.7862ZM50.0859 42.7443C50.0859 43.8168 49.2165 44.6862 48.144 44.6862H41.9859C40.9134 44.6862 40.044 43.8168 40.044 42.7443V40.3519C40.044 39.2795 40.9134 38.41 41.9859 38.41H48.144C49.2165 38.41 50.0859 39.2794 50.0859 40.3519V42.7443ZM50.0859 32.7025C50.0859 33.7751 49.2165 34.6444 48.144 34.6444H41.9859C40.9134 34.6444 40.044 33.7751 40.044 32.7025V30.3101C40.044 29.2377 40.9134 28.3682 41.9859 28.3682H48.144C49.2165 28.3682 50.0859 29.2376 50.0859 30.3101V32.7025ZM15.2771 9.65146H21.6285C22.2175 9.65081 22.6948 9.17349 22.6954 8.58455V1.69456C22.6948 0.758946 21.9366 0.00064518 21.001 0H15.9047C14.9694 0.00139789 14.2115 0.759269 14.2101 1.69456V8.58455C14.2109 9.17349 14.6881 9.65081 15.2771 9.65146ZM38.3746 9.65146H44.7274C45.3163 9.65081 45.7936 9.17349 45.7943 8.58455V1.69456C45.7929 0.759269 45.035 0.00139789 44.0997 0H39.0023C38.067 0.00139789 37.3091 0.759269 37.3077 1.69456V8.58455C37.3083 9.17349 37.7857 9.65081 38.3746 9.65146Z" fill="#4EC0DB"/>
<path id="Vector_2" d="M50.8239 7.26398H47.2992V8.58444C47.2985 10.0048 46.1475 11.1562 44.7272 11.1576H38.3744C36.9538 11.1562 35.8026 10.005 35.8012 8.58444V7.26398H24.2017V8.58444C24.2003 10.005 23.0491 11.1562 21.6285 11.1576H15.2771C13.8565 11.1562 12.7053 10.005 12.7039 8.58444V7.26398H9.17914C5.97486 7.26817 3.37844 9.86513 3.375 13.0694V21.5899H56.6294V13.0694C56.6251 9.86491 54.0284 7.26817 50.8239 7.26398Z" fill="#4EC0DB"/>
</g>
</g>
</svg>
